<svg width="27" height="10" viewBox="0 0 27 10" fill="none" xmlns="http://www.w3.org/2000/svg">
<g id="car-1">
<path id="Vector" fill-rule="evenodd" clip-rule="evenodd" d="M16.5846 2.83324C16.4661 3.00863 16.3929 3.20752 16.3693 3.42243H7.72149C6.93089 3.42243 6.44299 3.39877 6.02051 3.30133C6.45578 2.99108 6.95527 2.64552 7.48054 2.35474C8.15282 1.98258 8.84117 1.71553 9.46654 1.71553C9.97952 1.71553 10.5503 1.71536 11.1172 1.71519L11.1305 1.71519C11.6929 1.71501 12.2508 1.71484 12.7442 1.71484C14.1602 1.71484 15.3839 2.19076 16.5846 2.83324Z" fill="#EBEBEB" stroke="black" stroke-width="0.413793"/>
<path id="Vector_2" fill-rule="evenodd" clip-rule="evenodd" d="M3.16381 8.62046C1.84386 8.62046 0.459088 7.73701 0.39985 7.69907L0.264648 7.61217V5.62667L0.307857 5.55632C0.375458 5.4446 0.551777 5.09424 0.551777 4.81493L0.629135 2.75149L3.48091 2.56735L3.58475 2.51907C4.98486 1.86183 7.592 0.637695 9.07714 0.637695H13.3004C14.0754 0.703902 14.734 0.821142 15.2825 0.988728C16.3989 1.32873 18.9141 2.82183 19.3343 3.07425C19.7309 3.11976 21.8342 3.37355 23.5576 3.80942C25.5968 4.32458 26.2888 5.13355 26.3697 5.48941L26.5488 8.38046L26.3 8.43698C25.8191 8.54734 25.4254 8.61976 24.3737 8.61976H23.3332V8.03287H24.3737C25.1801 8.03287 25.5598 7.99079 25.9181 7.91974L25.785 5.5701C25.7466 5.4832 25.1773 4.82391 23.4113 4.37771C21.5512 3.90735 19.2263 3.65149 19.2033 3.64942L19.0813 3.60804C19.0528 3.59149 16.2317 1.89149 15.1082 1.54942C14.5995 1.39425 13.982 1.28459 13.2747 1.22321L9.07714 1.2239C7.72512 1.2239 5.19672 2.41149 3.83843 3.04873L3.57639 3.14873L1.2013 3.30252L1.14416 4.82598C1.14485 5.21767 0.949019 5.61905 0.857724 5.78527V7.28805C1.22639 7.50115 2.30033 8.04595 3.2349 8.03354L4.06771 8.03287V8.61976H3.24257C3.21678 8.62046 3.1903 8.62046 3.16381 8.62046ZM7.30487 8.61976H20.0953V8.03287H7.30487V8.61976Z" fill="black"/>
<path id="Vector_3" fill-rule="evenodd" clip-rule="evenodd" d="M0.869749 4.53499C0.859296 4.82257 0.849539 5.12741 0.848145 5.30878H1.22169C1.70396 5.30878 2.34233 4.94741 2.36184 4.53499V4.1543H0.856507V4.53499H0.869749Z" fill="black"/>
<path id="Vector_4" fill-rule="evenodd" clip-rule="evenodd" d="M24.1108 5.23242L24.6767 6.23724C24.8621 6.13242 25.1353 6.06415 25.3458 6.06415H25.3597C25.6545 6.06758 25.9486 6.06415 26.2427 6.06415L26.2316 6.01722C26.2079 5.91932 25.927 5.44412 25.6371 5.23242C25.1284 5.23242 24.6196 5.23242 24.1108 5.23242Z" fill="black"/>
<path id="Vector_5" fill-rule="evenodd" clip-rule="evenodd" d="M12.8042 4.80803H14.1708V4.41699H12.8042V4.80803Z" fill="black"/>
<path id="Vector_6" fill-rule="evenodd" clip-rule="evenodd" d="M6.72998 4.80803H8.09666V4.41699H6.72998V4.80803Z" fill="black"/>
<path id="Vector_7" fill-rule="evenodd" clip-rule="evenodd" d="M9.26465 6.85254V7.35323H18.5545L9.26465 6.85254Z" fill="black"/>
<path id="Vector_8" fill-rule="evenodd" clip-rule="evenodd" d="M25.5742 7.45646H26.2412V7.06543H25.5742V7.45646Z" fill="black"/>
<path id="Vector_9" fill-rule="evenodd" clip-rule="evenodd" d="M25.4687 6.93848H25.176C25.0596 6.93848 24.9648 7.03224 24.9648 7.14674V7.37432C24.9648 7.48882 25.0596 7.58259 25.176 7.58259H25.4687C25.5851 7.58259 25.6799 7.48882 25.6799 7.37432V7.14674C25.6799 7.03224 25.5851 6.93848 25.4687 6.93848Z" fill="black"/>
<path id="Vector_10" fill-rule="evenodd" clip-rule="evenodd" d="M17.1243 2.95807L17.1194 2.96289C16.9543 3.12289 16.8665 3.31737 16.8581 3.54289C16.8553 3.62358 16.8825 3.69393 16.9389 3.75186C16.9954 3.80979 17.0658 3.83944 17.1473 3.83944H17.8024C17.9097 3.83944 18.0017 3.78565 18.054 3.69255C18.107 3.60013 18.1049 3.49461 18.0491 3.40358C17.9293 3.2091 17.7341 3.00013 17.4219 2.89255C17.3153 2.856 17.2052 2.88082 17.1243 2.95807Z" fill="black"/>
<path id="Vector_11" fill-rule="evenodd" clip-rule="evenodd" d="M17.6608 4.13304C17.5995 4.13304 17.5396 4.10546 17.5012 4.05305L17.134 3.5558C17.0698 3.46822 17.0894 3.34615 17.1772 3.2827C17.2657 3.21925 17.389 3.23787 17.4531 3.32546L17.8204 3.8227C17.8846 3.9096 17.865 4.03167 17.7772 4.0958C17.7417 4.12063 17.7013 4.13304 17.6608 4.13304Z" fill="black"/>
<path id="Vector_12" fill-rule="evenodd" clip-rule="evenodd" d="M0.728027 7.55371V8.37923H2.9017V8.31439C1.99571 8.23163 1.09112 7.76197 0.728027 7.55371Z" fill="black"/>
<path id="Vector_13" fill-rule="evenodd" clip-rule="evenodd" d="M5.686 5.08594H5.68667C6.37873 5.08594 7.00873 5.36661 7.46589 5.81905L7.4673 5.81972C7.92446 6.27216 8.20811 6.89628 8.20811 7.58111V8.61973H7.26727C7.4248 8.35217 7.51538 8.04112 7.51538 7.70939C7.51538 6.71008 6.69653 5.89974 5.686 5.89974C4.67614 5.89974 3.85729 6.71008 3.85729 7.70939C3.85729 8.04112 3.94719 8.35217 4.10538 8.61973H3.16455V7.58111C3.16455 6.89628 3.44819 6.27216 3.90537 5.81972L3.90607 5.81905C4.36324 5.36661 4.99393 5.08594 5.686 5.08594Z" fill="black"/>
<path id="Vector_14" fill-rule="evenodd" clip-rule="evenodd" d="M4.1764 6.2153C4.56249 5.83325 5.09703 5.59668 5.6866 5.59668C6.27481 5.59668 6.80864 5.83325 7.19475 6.2153L7.19612 6.216C7.58223 6.59876 7.82128 7.12635 7.82128 7.70909C7.82128 8.29254 7.58223 8.82083 7.19612 9.20289H7.19475C6.80864 9.58494 6.27481 9.82221 5.6866 9.82221C5.09703 9.82221 4.56249 9.58565 4.1764 9.20289C3.79031 8.82083 3.55127 8.29254 3.55127 7.70909C3.55127 7.12635 3.79031 6.59876 4.1764 6.216V6.2153ZM5.6866 6.23185C4.86216 6.23185 4.19382 6.89322 4.19382 7.70909C4.19382 8.52497 4.86216 9.18634 5.6866 9.18634C6.51038 9.18634 7.1787 8.52497 7.1787 7.70909C7.1787 6.89322 6.51038 6.23185 5.6866 6.23185Z" fill="black"/>
<path id="Vector_15" fill-rule="evenodd" clip-rule="evenodd" d="M5.68678 8.24485C5.98438 8.24485 6.22761 8.00419 6.22761 7.70899C6.22761 7.41453 5.98438 7.17383 5.68678 7.17383C5.38852 7.17383 5.146 7.41453 5.146 7.70899C5.146 8.00419 5.38852 8.24485 5.68678 8.24485Z" fill="black"/>
<path id="Vector_16" fill-rule="evenodd" clip-rule="evenodd" d="M21.7143 5.08594C22.4071 5.08594 23.0371 5.36665 23.4943 5.81905L23.4956 5.81976C23.9521 6.27216 24.2365 6.89628 24.2365 7.58111V8.61973H23.2956C23.4531 8.35217 23.543 8.04112 23.543 7.70939C23.543 6.71008 22.7248 5.89974 21.7143 5.89974C20.7045 5.89974 19.8856 6.71008 19.8856 7.70939C19.8856 8.04112 19.9755 8.35217 20.133 8.61973H19.1929V7.58111C19.1929 6.89628 19.4765 6.27216 19.933 5.81976L19.9344 5.81905C20.3916 5.36665 21.0223 5.08594 21.7143 5.08594Z" fill="black"/>
<path id="Vector_17" fill-rule="evenodd" clip-rule="evenodd" d="M20.2047 6.2153C20.5908 5.83325 21.1247 5.59668 21.7142 5.59668C22.3031 5.59668 22.837 5.83325 23.223 6.2153L23.2244 6.216C23.6105 6.59876 23.8496 7.12635 23.8496 7.70909C23.8496 8.29254 23.6105 8.82083 23.2244 9.20289H23.223C22.837 9.58494 22.3031 9.82221 21.7142 9.82221C21.1247 9.82221 20.5908 9.58565 20.2047 9.20289C19.8186 8.82083 19.5796 8.29254 19.5796 7.70909C19.5796 7.12635 19.8186 6.59876 20.2047 6.216V6.2153ZM21.7142 6.23185C20.8898 6.23185 20.2221 6.89322 20.2221 7.70909C20.2221 8.52497 20.8898 9.18634 21.7142 9.18634C22.5387 9.18634 23.207 8.52497 23.207 7.70909C23.207 6.89322 22.5387 6.23185 21.7142 6.23185Z" fill="black"/>
<path id="Vector_18" fill-rule="evenodd" clip-rule="evenodd" d="M21.7151 8.24485C22.0127 8.24485 22.2559 8.00419 22.2559 7.70899C22.2559 7.41453 22.0127 7.17383 21.7151 7.17383C21.4168 7.17383 21.1743 7.41453 21.1743 7.70899C21.1743 8.00419 21.4168 8.24485 21.7151 8.24485Z" fill="black"/>
</g>
</svg>
