<svg width="136" height="136" viewBox="0 0 136 136" fill="none" xmlns="http://www.w3.org/2000/svg">
<circle cx="68" cy="68" r="68" fill="#E2F2FE"/>
<mask id="mask0_117_8406" style="mask-type:alpha" maskUnits="userSpaceOnUse" x="0" y="0" width="136" height="136">
<circle cx="68" cy="68" r="68" fill="#EFF4FF"/>
</mask>
<g mask="url(#mask0_117_8406)">
<g filter="url(#filter0_d_117_8406)">
<path d="M104 60H31C28.2044 60 26.8065 60 25.7039 60.4567C24.2337 61.0657 23.0657 62.2337 22.4567 63.7039C22 64.8065 22 66.2043 22 69V100C22 102.796 22 104.193 22.4567 105.296C23.0657 106.766 24.2337 107.934 25.7039 108.543C26.8065 109 28.2044 109 31 109H104C106.796 109 108.193 109 109.296 108.543C110.766 107.934 111.934 106.766 112.543 105.296C113 104.193 113 102.796 113 100V69C113 66.2044 113 64.8065 112.543 63.7039C111.934 62.2337 110.766 61.0657 109.296 60.4567C108.193 60 106.796 60 104 60Z" fill="white"/>
</g>
<circle cx="68.5" cy="50.5" r="22.5" fill="#38A0F0"/>
<g clip-path="url(#clip0_117_8406)">
<path d="M60.0142 50.4341L66.0284 56.4484L78.0568 44.4199" stroke="white" stroke-width="3.5" stroke-linecap="round" stroke-linejoin="round"/>
</g>
<path d="M31 83C31 80.7909 32.8413 79 35.1127 79H99.8873C102.159 79 104 80.7909 104 83V95C104 97.2091 102.159 99 99.8873 99H35.1127C32.8413 99 31 97.2091 31 95V83Z" fill="#F2F4F7"/>
<path d="M41.0591 94.1738L41.2028 90.3544L37.8621 92.403L37 90.9447L40.5203 89.1738L37 87.403L37.8621 85.9447L41.2028 87.9933L41.0591 84.1738H42.7833L42.6396 87.9933L45.9803 85.9447L46.8424 87.403L43.3221 89.1738L46.8424 90.9447L45.9803 92.403L42.6396 90.3544L42.7833 94.1738H41.0591Z" fill="#667085"/>
<path d="M57.9014 94.1738L58.045 90.3544L54.7044 92.403L53.8423 90.9447L57.3625 89.1738L53.8423 87.403L54.7044 85.9447L58.045 87.9933L57.9014 84.1738H59.6256L59.4819 87.9933L62.8225 85.9447L63.6846 87.403L60.1644 89.1738L63.6846 90.9447L62.8225 92.403L59.4819 90.3544L59.6256 94.1738H57.9014Z" fill="#667085"/>
<path d="M74.7439 94.1738L74.8876 90.3544L71.5469 92.403L70.6848 90.9447L74.2051 89.1738L70.6848 87.403L71.5469 85.9447L74.8876 87.9933L74.7439 84.1738H76.4681L76.3244 87.9933L79.6651 85.9447L80.5272 87.403L77.0069 89.1738L80.5272 90.9447L79.6651 92.403L76.3244 90.3544L76.4681 94.1738H74.7439Z" fill="#667085"/>
<path d="M92.5864 94.1738L92.7301 90.3544L89.3894 92.403L88.5273 90.9447L92.0476 89.1738L88.5273 87.403L89.3894 85.9447L92.7301 87.9933L92.5864 84.1738H94.3106L94.1669 87.9933L97.5076 85.9447L98.3697 87.403L94.8494 89.1738L98.3697 90.9447L97.5076 92.403L94.1669 90.3544L94.3106 94.1738H92.5864Z" fill="#667085"/>
</g>
<defs>
<filter id="filter0_d_117_8406" x="-1" y="46" width="137" height="95" filterUnits="userSpaceOnUse" color-interpolation-filters="sRGB">
<feFlood flood-opacity="0" result="BackgroundImageFix"/>
<feColorMatrix in="SourceAlpha" type="matrix" values="0 0 0 0 0 0 0 0 0 0 0 0 0 0 0 0 0 0 127 0" result="hardAlpha"/>
<feOffset dy="9"/>
<feGaussianBlur stdDeviation="11.5"/>
<feComposite in2="hardAlpha" operator="out"/>
<feColorMatrix type="matrix" values="0 0 0 0 0.294118 0 0 0 0 0.333333 0 0 0 0 0.388235 0 0 0 0.14 0"/>
<feBlend mode="normal" in2="BackgroundImageFix" result="effect1_dropShadow_117_8406"/>
<feBlend mode="normal" in="SourceGraphic" in2="effect1_dropShadow_117_8406" result="shape"/>
</filter>
<clipPath id="clip0_117_8406">
<rect width="28.8682" height="28.8682" fill="white" transform="translate(54 36)"/>
</clipPath>
</defs>
</svg>
