<svg width="26" height="10" viewBox="0 0 26 10" fill="none" xmlns="http://www.w3.org/2000/svg">
<g id="car-2">
<path id="Vector" fill-rule="evenodd" clip-rule="evenodd" d="M4.38403 2.10743L4.37861 2.09516L4.37116 2.08369C4.31104 1.99107 4.31923 1.93567 4.34319 1.89546C4.37439 1.84303 4.45913 1.77204 4.64882 1.70254C5.02636 1.56424 5.6972 1.47616 6.67417 1.47616H6.67475C9.19086 1.47616 11.707 1.47616 14.2239 1.47559C15.113 1.55262 15.8534 1.9256 16.5745 2.39827C16.5702 2.40184 16.5658 2.40546 16.5615 2.40914L16.5457 2.42273L16.5431 2.42614C16.4016 2.55729 16.3177 2.76371 16.2661 2.94313C16.2292 3.07156 16.204 3.2044 16.189 3.32213L5.14028 3.34473C5.00319 3.34512 4.90437 3.28809 4.87044 3.21097L4.38403 2.10743Z" fill="#EBEBEB" stroke="black" stroke-width="0.413793"/>
<path id="Vector_2" fill-rule="evenodd" clip-rule="evenodd" d="M2.65154 3.34481H1.62988C1.73166 2.9344 1.87547 2.42525 2.0906 2.0498H2.28843L2.65154 3.34481Z" fill="#EBEBEB" stroke="black" stroke-width="0.413793"/>
<path id="Vector_3" fill-rule="evenodd" clip-rule="evenodd" d="M3.39065 8.30869C2.15049 8.30869 0.320591 7.32768 0.241789 7.28513L0.109375 7.21389V5.68229L0.192053 5.60987C0.311548 5.50525 0.558288 5.22883 0.558288 5.0403L0.581544 4.63746C0.598335 4.35929 0.617713 4.0386 0.62805 3.7518C0.634509 3.58054 0.886418 3.28974 1.17902 3.14146C1.30626 2.6679 1.52523 2.01962 1.70545 1.65698L1.77391 1.52307C1.79394 1.48457 1.80879 1.461 1.81525 1.43974C1.81267 1.43054 1.80556 1.40468 1.79781 1.36273L1.72288 0.93859L1.97544 0.890889C3.05284 0.686865 5.21087 0.564453 6.6745 0.564453H14.2589C15.8305 0.68629 16.7793 1.36962 17.7837 2.09319C18.2468 2.42652 18.7255 2.77135 19.29 3.08284C19.538 3.10353 19.8972 3.1156 20.3163 3.12997C22.8303 3.21503 25.1072 3.37365 25.3591 4.36674L25.5935 5.49608C25.7434 5.58629 25.963 5.76619 25.963 6.04261V7.4616C25.963 7.67306 25.9339 7.88513 25.7266 8.00641C25.3287 8.2294 24.863 8.30812 23.9426 8.30812H23.4801V7.81906H23.9426C24.7312 7.81906 25.1201 7.76274 25.4127 7.60468C25.4049 7.5995 25.4133 7.55527 25.4133 7.4616V6.04261C25.4133 5.97594 25.2829 5.89261 25.2305 5.87135L25.102 5.81848L24.821 4.46502C24.6434 3.7656 21.707 3.66619 20.2957 3.61789C19.8248 3.60237 19.4269 3.5886 19.1698 3.5633L19.0568 3.52882C18.4374 3.19261 17.9297 2.8271 17.4381 2.4725C16.4596 1.76848 15.6154 1.16043 14.235 1.05238L6.6745 1.05353C5.34908 1.05353 3.45137 1.15411 2.34749 1.3248C2.37849 1.49549 2.36493 1.55238 2.27192 1.72939L2.20797 1.85526C2.0284 2.21618 1.79652 2.91962 1.68478 3.36503L1.65184 3.49664L1.50909 3.54146C1.35019 3.59202 1.19129 3.7702 1.16546 3.8225C1.16675 4.05754 1.14672 4.38283 1.12993 4.66389L1.10732 5.05182C1.10797 5.3932 0.810847 5.73112 0.659055 5.88169V6.93572C1.09699 7.15814 2.50445 7.82652 3.43845 7.81963L4.10827 7.81906V8.30812H3.4462C3.42812 8.30812 3.40939 8.30869 3.39065 8.30869ZM8.05806 8.30812H19.5303V7.81906H8.05806V8.30812Z" fill="black"/>
<path id="Vector_4" fill-rule="evenodd" clip-rule="evenodd" d="M23.3442 4.4834L24.109 5.70352C24.3596 5.57592 24.7285 5.49373 25.0133 5.49373H25.032L25.3143 5.49544L25.1315 4.61674L23.3442 4.4834Z" fill="black"/>
<path id="Vector_5" fill-rule="evenodd" clip-rule="evenodd" d="M12.8184 4.26824H14.0857V3.94238H12.8184V4.26824Z" fill="black"/>
<path id="Vector_6" fill-rule="evenodd" clip-rule="evenodd" d="M7.84277 4.10418H9.11006V3.77832H7.84277V4.10418Z" fill="black"/>
<path id="Vector_7" fill-rule="evenodd" clip-rule="evenodd" d="M0.833984 5.02068H1.0762C1.63493 5.02068 2.3745 4.6448 2.39711 4.21435V3.81836H0.900514C0.884364 4.23504 0.850131 4.70973 0.833984 5.02068Z" fill="black"/>
<path id="Vector_8" fill-rule="evenodd" clip-rule="evenodd" d="M16.9012 2.70892L16.8967 2.71352C16.7429 2.84513 16.6616 3.33478 16.6545 3.52214C16.6519 3.58938 16.6771 3.64799 16.7294 3.69629C16.7817 3.74455 16.847 3.76927 16.9225 3.76927H17.5297C18.1789 3.76927 17.4193 2.72961 17.177 2.65432C17.0788 2.62386 16.9762 2.64513 16.9012 2.70892Z" fill="black"/>
<path id="Vector_9" fill-rule="evenodd" clip-rule="evenodd" d="M9.57861 6.72461V7.14186H18.19L9.57861 6.72461Z" fill="black"/>
<path id="Vector_10" fill-rule="evenodd" clip-rule="evenodd" d="M4.5812 9.34537C4.22789 9.07811 3.96629 8.71833 3.84227 8.30856H3.43018V7.34764C3.43018 6.6988 3.72859 6.10801 4.20915 5.68041C4.68974 5.25281 5.35371 4.9873 6.0836 4.9873C6.81221 4.9873 7.47622 5.25281 7.9568 5.68098L7.95742 5.68041C8.438 6.10801 8.73643 6.69823 8.73643 7.34764V8.30856H8.32433C8.20094 8.71833 7.93805 9.07811 7.58604 9.34537C7.1804 9.65225 6.65525 9.83789 6.0836 9.83789C5.51199 9.83789 4.98684 9.65225 4.5812 9.34537ZM21.505 6.39477C20.6498 6.39477 19.9567 7.01143 19.9567 7.77238C19.9567 8.53387 20.6498 9.15053 21.505 9.15053C22.3602 9.15053 23.0533 8.53387 23.0533 7.77238C23.0533 7.01143 22.3602 6.39477 21.505 6.39477ZM6.0836 6.39477C5.22841 6.39477 4.53469 7.01143 4.53469 7.77238C4.53469 8.53387 5.22841 9.15053 6.0836 9.15053C6.93883 9.15053 7.63189 8.53387 7.63189 7.77238C7.63189 7.01143 6.93883 6.39477 6.0836 6.39477ZM21.505 4.9873C22.2342 4.9873 22.8976 5.25281 23.3788 5.68098L23.3794 5.68041C23.86 6.10801 24.1584 6.69823 24.1584 7.34764V8.30856H23.7457C23.6223 8.71833 23.3601 9.07811 23.0074 9.34537C22.6018 9.65225 22.0766 9.83789 21.505 9.83789C20.9334 9.83789 20.4089 9.65282 20.0032 9.34594L20.0026 9.34651C19.6499 9.07925 19.3877 8.71893 19.2636 8.30856H18.8515V7.34764C18.8515 6.69823 19.1499 6.10801 19.6305 5.68041C20.1111 5.25281 20.7751 4.9873 21.505 4.9873Z" fill="black"/>
<path id="Vector_11" fill-rule="evenodd" clip-rule="evenodd" d="M21.5049 7.23633C21.1722 7.23633 20.9028 7.47654 20.9028 7.77255C20.9028 8.06852 21.1722 8.30816 21.5049 8.30816C21.8375 8.30816 22.1068 8.06852 22.1068 7.77255C22.1068 7.47654 21.8375 7.23633 21.5049 7.23633Z" fill="black"/>
<path id="Vector_12" fill-rule="evenodd" clip-rule="evenodd" d="M6.08347 7.23633C5.75082 7.23633 5.48145 7.47654 5.48145 7.77255C5.48145 8.06852 5.75082 8.30816 6.08347 8.30816C6.41612 8.30816 6.68546 8.06852 6.68546 7.77255C6.68546 7.47654 6.41612 7.23633 6.08347 7.23633Z" fill="black"/>
</g>
</svg>
