<svg width="22" height="20" viewBox="0 0 22 20" fill="none" xmlns="http://www.w3.org/2000/svg">
<g id="Group 195">
<path id="Vector" d="M16.5924 16.1334V17.4004C16.5924 17.743 16.8752 18.0208 17.224 18.0208H19.7356C20.0844 18.0208 20.3672 17.743 20.3672 17.4004V10.9179C20.3672 10.4591 20.2564 10.0186 20.056 9.62737L19.4842 8.86351L20.913 8.09349C21.2348 7.91999 21.3962 7.35886 21.2652 6.86849L21.1187 6.31981C21.027 5.97651 20.812 5.75293 20.5736 5.75293H17.5958L17.0379 4.17873C16.7709 3.42536 16.0583 2.92188 15.259 2.92188H13.2895C13.0289 2.92188 12.8177 3.13313 12.8177 3.39372C12.8177 3.65431 13.0289 3.86556 13.2895 3.86556H15.259C15.6586 3.86556 16.0149 4.1173 16.1484 4.49399L16.7064 6.06818C16.8399 6.44487 17.1962 6.69661 17.5958 6.69661H20.2425L20.3535 7.11203C20.3709 7.17727 20.3714 7.2568 20.3565 7.32137L19.0365 8.03279C18.471 8.33756 18.3686 9.106 18.8347 9.54813C19.2089 9.90314 19.4235 10.3969 19.4235 10.9179V17.0771H17.5361V16.1334C17.5361 15.6123 17.1136 15.1898 16.5924 15.1898H13.2895C13.0289 15.1898 12.8177 15.401 12.8177 15.6616C12.8177 15.9222 13.0289 16.1334 13.2895 16.1334H16.5924ZM5.26822 16.1334V17.4004C5.26822 17.743 4.98546 18.0208 4.63667 18.0208H2.12504C1.77625 18.0208 1.49349 17.743 1.49349 17.4004V10.9179C1.49349 10.4591 1.60419 10.0187 1.80469 9.62738L2.37647 8.86353L0.947676 8.09349C0.625814 7.91999 0.464447 7.35886 0.595421 6.86849L0.741949 6.31981C0.833644 5.97651 1.04862 5.75293 1.287 5.75293H4.26481L4.82275 4.17873C5.08977 3.42536 5.80239 2.92188 6.60169 2.92188H8.57111C8.83171 2.92188 9.04296 3.13313 9.04296 3.39372C9.04296 3.65431 8.83171 3.86556 8.57111 3.86556H6.60169C6.20204 3.86556 5.84573 4.1173 5.71222 4.49399L5.15428 6.06818C5.02077 6.44487 4.66446 6.69661 4.26481 6.69661H1.61808L1.50714 7.112C1.48971 7.17727 1.48926 7.25681 1.50411 7.32137L2.82418 8.03281C3.38967 8.33758 3.492 9.10601 3.02596 9.54814C2.65175 9.90315 2.43717 10.3969 2.43717 10.9179V17.0771H4.32454V16.1334C4.32454 15.6123 4.74704 15.1898 5.26822 15.1898H8.57111C8.83171 15.1898 9.04296 15.401 9.04296 15.6616C9.04296 15.9222 8.83171 16.1334 8.57111 16.1334H5.26822Z" fill="#344054" stroke="#344054" stroke-width="0.6"/>
<path id="Vector_2" fill-rule="evenodd" clip-rule="evenodd" d="M6.57474 11.6702C6.83485 11.7023 7.0509 11.9023 7.0509 12.1634V12.5436C7.0509 12.6178 6.9892 12.677 6.91484 12.6742L4.86879 12.598C4.56987 12.5867 4.32471 12.3332 4.32471 12.0343V11.6134C4.32471 11.5013 4.41727 11.4037 4.52868 11.4173L6.57474 11.6702ZM15.2862 11.6702L17.3323 11.4173C17.4437 11.4037 17.5363 11.5013 17.5363 11.6134V12.0343C17.5363 12.3332 17.2911 12.5867 16.9922 12.598L14.9461 12.6742C14.8718 12.677 14.8101 12.6178 14.8101 12.5436V12.1634C14.8101 11.9023 15.0261 11.7023 15.2862 11.6702Z" fill="#344054" stroke="#344054" stroke-width="0.6"/>
<path id="Vector_3" d="M11.4022 1.507C11.4022 1.24641 11.1909 1.03516 10.9303 1.03516C10.6697 1.03516 10.4585 1.24641 10.4585 1.507V18.4933C10.4585 18.7539 10.6697 18.9651 10.9303 18.9651C11.1909 18.9651 11.4022 18.7539 11.4022 18.4933V1.507Z" fill="#344054" stroke="#344054" stroke-width="0.6"/>
</g>
</svg>
