<svg width="27" height="11" viewBox="0 0 27 11" fill="none" xmlns="http://www.w3.org/2000/svg">
<g id="car-7">
<path id="Vector" fill-rule="evenodd" clip-rule="evenodd" d="M15.6624 1.88965C16.4413 1.96978 17.0912 2.35682 17.7243 2.84974L17.7146 2.85955L17.7118 2.86396C17.5839 3.00648 17.5087 3.22849 17.4628 3.41899C17.4311 3.55045 17.4091 3.68618 17.3956 3.80803C17.1188 3.80854 16.8456 3.80906 16.5752 3.80956C14.4077 3.81362 12.4181 3.81735 10.147 3.81854L10.4143 1.88965H10.4182H10.4296H10.4409H10.4523H10.4636H10.475H10.4863H10.4976H10.5089H10.5202H10.5315H10.5428H10.554H10.5653H10.5765H10.5878H10.599H10.6102H10.6214H10.6327H10.6438H10.655H10.6662H10.6773H10.6885H10.6996H10.7107H10.7219H10.733H10.7441H10.7552H10.7663H10.7773H10.7884H10.7995H10.8105H10.8216H10.8326H10.8436H10.8546H10.8656H10.8767H10.8876H10.8986H10.9096H10.9205H10.9315H10.9424H10.9534H10.9643H10.9752H10.9861H10.997H11.0079H11.0188H11.0297H11.0406H11.0514H11.0623H11.0731H11.084H11.0948H11.1056H11.1164H11.1272H11.1381H11.1488H11.1596H11.1704H11.1812H11.1919H11.2027H11.2134H11.2242H11.2349H11.2456H11.2563H11.267H11.2777H11.2884H11.2991H11.3098H11.3205H11.3311H11.3418H11.3524H11.3631H11.3737H11.3844H11.395H11.4056H11.4162H11.4269H11.4375H11.4481H11.4586H11.4692H11.4798H11.4903H11.5009H11.5115H11.5221H11.5326H11.5431H11.5536H11.5642H11.5747H11.5852H11.5957H11.6062H11.6167H11.6272H11.6377H11.6482H11.6587H11.6691H11.6796H11.6901H11.7005H11.7109H11.7214H11.7318H11.7422H11.7527H11.7631H11.7735H11.7839H11.7944H11.8048H11.8152H11.8255H11.8359H11.8463H11.8567H11.8671H11.8774H11.8878H11.8981H11.9085H11.9188H11.9292H11.9395H11.9499H11.9602H11.9705H11.9809H11.9912H12.0015H12.0118H12.0221H12.0324H12.0427H12.053H12.0633H12.0736H12.0839H12.0942H12.1044H12.1147H12.125H12.1352H12.1455H12.1558H12.166H12.1763H12.1865H12.1967H12.207H12.2172H12.2275H12.2377H12.2479H12.2582H12.2684H12.2786H12.2888H12.299H12.3093H12.3195H12.3297H12.3399H12.3501H12.3603H12.3705H12.3806H12.3908H12.401H12.4112H12.4214H12.4316H12.4417H12.4519H12.4621H12.4723H12.4824H12.4926H12.5028H12.5129H12.5231H12.5333H12.5434H12.5536H12.5638H12.5739H12.584H12.5942H12.6043H12.6145H12.6246H12.6348H12.6449H12.6551H12.6652H12.6753H12.6855H12.6956H12.7058H12.7159H12.726H12.7362H12.7463H12.7564H12.7665H12.7767H12.7868H12.7969H12.807H12.8172H12.8273H12.8374H12.8476H12.8577H12.8678H12.8779H12.8881H12.8982H12.9083H12.9184H12.9285H12.9386H12.9488H12.9589H12.969H12.9791H12.9893H12.9994H13.0095H13.0196H13.0297H13.0399H13.05H13.0601H13.0702H13.0804H13.0905H13.1006H13.1107H13.1209H13.131H13.1411H13.1512H13.1614H13.1715H13.1816H13.1917H13.2019H13.212H13.2222H13.2323H13.2425H13.2526H13.2627H13.2729H13.283H13.2932H13.3033H13.3135H13.3236H13.3337H13.3439H13.354H13.3642H13.3744H13.3845H13.3947H13.4049H13.415H13.4252H13.4354H13.4455H13.4557H13.4658H13.476H13.4862H13.4964H13.5066H13.5167H13.527H13.5372H13.5473H13.5575H13.5677H13.5779H13.5881H13.5983H13.6085H13.6187H13.629H13.6392H13.6494H13.6596H13.6698H13.6801H13.6903H13.7006H13.7108H13.7211H13.7313H13.7415H13.7518H13.762H13.7723H13.7825H13.7928H13.8031H13.8134H13.8236H13.8339H13.8442H13.8545H13.8648H13.8751H13.8854H13.8957H13.906H13.9163H13.9266H13.9369H13.9472H13.9576H13.9679H13.9782H13.9886H13.9989H14.0093H14.0196H14.03H14.0404H14.0507H14.0611H14.0715H14.0819H14.0922H14.1026H14.113H14.1234H14.1338H14.1443H14.1547H14.1651H14.1755H14.1859H14.1964H14.2069H14.2173H14.2277H14.2382H14.2486H14.2591H14.2696H14.2801H14.2906H14.3011H14.3116H14.3221H14.3326H14.3431H14.3536H14.3642H14.3747H14.3852H14.3957H14.4063H14.4168H14.4274H14.438H14.4486H14.4591H14.4697H14.4803H14.4909H14.5016H14.5121H14.5228H14.5334H14.544H14.5547H14.5653H14.576H14.5867H14.5973H14.608H14.6187H14.6294H14.64H14.6508H14.6615H14.6722H14.6829H14.6936H14.7044H14.7151H14.7259H14.7366H14.7474H14.7582H14.769H14.7797H14.7906H14.8014H14.8122H14.823H14.8338H14.8447H14.8555H14.8664H14.8772H14.8881H14.899H14.9099H14.9208H14.9317H14.9426H14.9535H14.9644H14.9754H14.9863H14.9973H15.0082H15.0192H15.0302H15.0411H15.0522H15.0631H15.0742H15.0852H15.0962H15.1073H15.1183H15.1294H15.1404H15.1515H15.1626H15.1737H15.1848H15.1959H15.207H15.2181H15.2293H15.2405H15.2516H15.2628H15.274H15.2851H15.2963H15.3076H15.3188H15.33H15.3413H15.3525H15.3637H15.375H15.3863H15.3976H15.4089H15.4202H15.4315H15.4428H15.4542H15.4655H15.4769H15.4882H15.4996H15.511H15.5224H15.5338H15.5452H15.5567H15.5681H15.5796H15.591H15.6025H15.614H15.6255H15.637H15.6485H15.6601H15.6624Z" fill="#EBEBEB" stroke="black" stroke-width="0.413793"/>
<path id="Vector_2" fill-rule="evenodd" clip-rule="evenodd" d="M2.61142 9.10664C1.55016 9.10664 0.277 8.58274 0.222018 8.55961L0.0673828 8.4951V6.32512L0.140692 6.24907C0.246645 6.13829 0.464854 5.845 0.464854 5.64601L0.485472 5.21885C0.50036 4.92493 0.518115 4.58475 0.526707 4.28049C0.533581 4.07055 0.833689 3.68901 1.14411 3.57096L1.22658 3.55635H8.58724L8.95835 1.53424C9.02537 1.17035 9.3272 0.906859 9.67541 0.906859L15.6942 0.90625C17.0876 1.03526 17.9289 1.75879 18.8189 2.52491C19.2302 2.87785 19.654 3.24236 20.1545 3.57278C20.375 3.59469 20.6935 3.60747 21.0646 3.62207C23.2936 3.71274 25.313 3.88069 25.5359 4.93221L25.7523 6.82349C25.8846 6.92086 26.0713 7.10951 26.0713 7.39672V8.20908C26.0713 8.43365 26.0462 8.65879 25.8617 8.78657C25.5089 9.02206 25.0965 9.10482 24.2799 9.10482H23.8291V8.5882H24.2799C24.9792 8.5882 25.3245 8.52795 25.5834 8.36061C25.5765 8.35515 25.5845 8.30827 25.5845 8.20908V7.39672C25.5845 7.32551 25.4688 7.23849 25.4224 7.21598L25.2993 7.15515L25.0565 5.01985C24.9018 4.2957 22.2977 4.19043 21.0462 4.13992C20.6288 4.12288 20.2765 4.10828 20.048 4.0815L19.9478 4.0456C19.3991 3.68962 18.9484 3.30199 18.5125 2.92714C17.6454 2.1811 16.8969 1.53728 15.673 1.42288L9.67541 1.4241C9.5574 1.4241 9.45949 1.51051 9.43601 1.63343L8.98814 4.07298H1.27469C1.14582 4.14114 1.0244 4.30483 1.00321 4.35595C1.00436 4.60544 0.987176 4.94926 0.971714 5.24682L0.952242 5.65755C0.952242 6.01962 0.689362 6.37747 0.554198 6.53686V8.13729C0.928758 8.27785 1.91614 8.60161 2.69447 8.5882H3.35081V9.10482H2.70077C2.67098 9.10606 2.6412 9.10664 2.61142 9.10664ZM6.7276 9.10544H20.4082V8.5882H6.7276V9.10544Z" fill="black"/>
<path id="Vector_3" fill-rule="evenodd" clip-rule="evenodd" d="M25.5248 7.17788L25.325 5.2002H24.7998V7.17788H25.5248Z" fill="black"/>
<path id="Vector_4" fill-rule="evenodd" clip-rule="evenodd" d="M14.417 4.82684H15.5407V4.48242H14.417V4.82684Z" fill="black"/>
<path id="Vector_5" fill-rule="evenodd" clip-rule="evenodd" d="M0.709473 5.6242H0.924244C1.41908 5.6242 2.07542 5.22564 2.09546 4.76986V4.35059H0.768463C0.754147 4.79176 0.723789 5.29441 0.709473 5.6242Z" fill="black"/>
<path id="Vector_6" fill-rule="evenodd" clip-rule="evenodd" d="M18.0374 3.17681L18.0328 3.18167C17.8971 3.32103 17.8249 3.83948 17.818 4.03786C17.8158 4.10906 17.8381 4.17113 17.8851 4.22224C17.9314 4.27336 17.9887 4.29952 18.0557 4.29952H18.5941C19.1702 4.29952 18.4961 3.19871 18.2814 3.119C18.1943 3.08674 18.1033 3.10926 18.0374 3.17681Z" fill="black"/>
<path id="Vector_7" fill-rule="evenodd" clip-rule="evenodd" d="M8.74121 7.42871V7.87052H18.678L8.74121 7.42871Z" fill="black"/>
<path id="Vector_8" fill-rule="evenodd" clip-rule="evenodd" d="M19.3604 8.84636H19.0356V8.08817C19.0356 6.28209 20.4188 4.8125 22.1192 4.8125C23.8191 4.8125 25.2022 6.28209 25.2022 8.08817V8.80804H24.8774V8.08817C24.8774 6.47256 23.6398 5.15752 22.1192 5.15752C20.598 5.15752 19.3604 6.47256 19.3604 8.08817V8.84636Z" fill="black"/>
<path id="Vector_9" fill-rule="evenodd" clip-rule="evenodd" d="M22.1187 7.9707C21.8238 7.9707 21.585 8.2251 21.585 8.53847C21.585 8.85188 21.8238 9.10561 22.1187 9.10561C22.4131 9.10561 22.6525 8.85188 22.6525 8.53847C22.6525 8.2251 22.4131 7.9707 22.1187 7.9707Z" fill="black"/>
<path id="Vector_10" fill-rule="evenodd" clip-rule="evenodd" d="M8.12265 8.84636H7.79734V8.08817C7.79734 6.47256 6.56028 5.15752 5.03912 5.15752C3.51796 5.15752 2.28087 6.47256 2.28087 8.08817V8.78918H1.95557V8.08817C1.95557 6.28209 3.33927 4.8125 5.03912 4.8125C6.73896 4.8125 8.12265 6.28209 8.12265 8.08817V8.84636Z" fill="black"/>
<path id="Vector_11" fill-rule="evenodd" clip-rule="evenodd" d="M22.1185 5.58887H22.1191C22.7651 5.58887 23.3533 5.87 23.78 6.32335L23.7805 6.32273C24.2066 6.77546 24.4712 7.40041 24.4712 8.08863V9.10549H24.1058C23.9959 9.53935 23.7633 9.92091 23.4512 10.2032C23.0915 10.5282 22.6259 10.7247 22.1191 10.7247C21.6122 10.7247 21.1471 10.5288 20.7874 10.2039L20.7869 10.2045C20.4742 9.92153 20.2411 9.53997 20.1317 9.10549H19.7663V8.08863C19.7663 7.40103 20.0309 6.77546 20.457 6.32273H20.4576C20.8843 5.87 21.4719 5.58887 22.1185 5.58887ZM22.1191 7.0791C21.3608 7.0791 20.7457 7.73269 20.7457 8.53834C20.7457 9.34404 21.3608 9.99696 22.1191 9.99696C22.8773 9.99696 23.4919 9.34404 23.4919 8.53834C23.4919 7.73269 22.8773 7.0791 22.1191 7.0791ZM5.03928 7.0791C4.28098 7.0791 3.66645 7.73269 3.66645 8.53834C3.66645 9.34404 4.28098 9.99696 5.03928 9.99696C5.79754 9.99696 6.4121 9.34404 6.4121 8.53834C6.4121 7.73269 5.79754 7.0791 5.03928 7.0791ZM5.03928 5.58887C5.6853 5.58887 6.27408 5.87 6.70076 6.32335L6.70131 6.32273C7.12741 6.77546 7.39204 7.40041 7.39204 8.08863V9.10549H7.02607C6.91667 9.53935 6.68413 9.92091 6.37144 10.2032C6.01174 10.5282 5.54615 10.7247 5.03928 10.7247C4.53241 10.7247 4.06678 10.5282 3.70711 10.2032C3.39441 9.92029 3.16188 9.53935 3.05192 9.10549H2.68652V8.08863C2.68652 7.40103 2.95112 6.77546 3.3778 6.32273C3.80333 5.87 4.39209 5.58887 5.03928 5.58887Z" fill="black"/>
<path id="Vector_12" fill-rule="evenodd" clip-rule="evenodd" d="M5.03915 7.9707C4.74418 7.9707 4.50537 8.2251 4.50537 8.53847C4.50537 8.85188 4.74418 9.10561 5.03915 9.10561C5.33409 9.10561 5.57294 8.85188 5.57294 8.53847C5.57294 8.2251 5.33409 7.9707 5.03915 7.9707Z" fill="black"/>
<path id="Vector_13" fill-rule="evenodd" clip-rule="evenodd" d="M10.0171 4.82684H11.1408V4.48242H10.0171V4.82684Z" fill="black"/>
</g>
</svg>
