<svg width="327" height="320" viewBox="0 0 327 320" fill="none" xmlns="http://www.w3.org/2000/svg">
<path d="M259.963 174.5C259.963 229.106 215.77 273.372 161.257 273.372C106.744 273.372 62.5506 229.106 62.5506 174.5C62.5506 119.893 106.744 75.6272 161.257 75.6272C215.77 75.6272 259.963 119.893 259.963 174.5Z" stroke="#EFF4FF" stroke-width="1.1236"/>
<path d="M305.952 174.5C305.952 254.548 241.169 319.438 161.257 319.438C81.3448 319.438 16.5618 254.548 16.5618 174.5C16.5618 94.452 81.3448 29.5618 161.257 29.5618C241.169 29.5618 305.952 94.452 305.952 174.5Z" stroke="#EFF4FF" stroke-width="1.1236"/>
<ellipse cx="304.831" cy="168.882" rx="6.1692" ry="6.17978" fill="#66B9F9"/>
<ellipse cx="146.675" cy="273.373" rx="6.1692" ry="6.17978" fill="#66B9F9"/>
</svg>
