<svg width="22" height="22" viewBox="0 0 22 22" fill="none" xmlns="http://www.w3.org/2000/svg">
<g id="share-2">
<path id="Icon" d="M7.87417 12.3838L14.135 16.0322M14.1258 5.96717L7.87417 9.61551M19.25 4.58301C19.25 6.10179 18.0188 7.33301 16.5 7.33301C14.9812 7.33301 13.75 6.10179 13.75 4.58301C13.75 3.06422 14.9812 1.83301 16.5 1.83301C18.0188 1.83301 19.25 3.06422 19.25 4.58301ZM8.25 10.9997C8.25 12.5185 7.01878 13.7497 5.5 13.7497C3.98122 13.7497 2.75 12.5185 2.75 10.9997C2.75 9.48089 3.98122 8.24967 5.5 8.24967C7.01878 8.24967 8.25 9.48089 8.25 10.9997ZM19.25 17.4163C19.25 18.9351 18.0188 20.1663 16.5 20.1663C14.9812 20.1663 13.75 18.9351 13.75 17.4163C13.75 15.8976 14.9812 14.6663 16.5 14.6663C18.0188 14.6663 19.25 15.8976 19.25 17.4163Z" stroke="#344054" stroke-width="1.66667" stroke-linecap="round" stroke-linejoin="round"/>
</g>
</svg>
