<svg width="27" height="11" viewBox="0 0 27 11" fill="none" xmlns="http://www.w3.org/2000/svg">
<g id="car-3">
<path id="Vector" fill-rule="evenodd" clip-rule="evenodd" d="M12.2718 1.86188C14.0601 1.84084 15.2824 2.42775 16.6166 3.19785C16.4881 3.36916 16.4018 3.5633 16.3619 3.77466L7.54861 3.44746C7.54699 3.44717 7.54505 3.44682 7.5429 3.44641C7.53181 3.44429 7.51405 3.44048 7.49125 3.4342C7.44545 3.42158 7.38057 3.39935 7.30848 3.36168C7.20665 3.30846 7.09083 3.22482 6.99268 3.09231C7.11847 3.03935 7.23843 2.98865 7.35334 2.94009C8.24597 2.56292 8.83178 2.31539 9.44055 2.15135C10.1639 1.95647 10.9238 1.87917 12.2718 1.86188Z" fill="#EBEBEB" stroke="black" stroke-width="0.413793"/>
<path id="Vector_2" fill-rule="evenodd" clip-rule="evenodd" d="M1.80455 4.30046C1.79277 4.6086 1.78247 4.93591 1.78174 5.12953H2.17531C2.68436 5.12953 3.3582 4.74308 3.3788 4.30046V3.89258H1.79057V4.30046H1.80455Z" fill="black"/>
<path id="Vector_3" fill-rule="evenodd" clip-rule="evenodd" d="M1.61475 7.81348V8.69796H3.90918V8.62923C2.95286 8.53985 1.99801 8.03664 1.61475 7.81348Z" fill="black"/>
<path id="Vector_4" fill-rule="evenodd" clip-rule="evenodd" d="M17.1308 3.3879L17.1257 3.39307C16.9513 3.5645 16.8586 3.77287 16.8498 4.0145C16.8469 4.10095 16.8756 4.17632 16.9351 4.23839C16.9947 4.30046 17.069 4.33223 17.1551 4.33223H17.8466C17.9599 4.33223 18.057 4.2746 18.1122 4.17484C18.1681 4.07583 18.1658 3.96278 18.107 3.86524C17.9805 3.65686 17.7745 3.43297 17.4449 3.3177C17.3331 3.27854 17.2161 3.3044 17.1308 3.3879Z" fill="black"/>
<path id="Vector_5" fill-rule="evenodd" clip-rule="evenodd" d="M17.6969 4.6471C17.6321 4.6471 17.5689 4.61755 17.5284 4.5614L17.1415 4.02864C17.0731 3.9348 17.0937 3.80401 17.1871 3.73603C17.2798 3.66878 17.41 3.68873 17.4784 3.78184L17.8653 4.3146C17.933 4.4077 17.9124 4.53848 17.8197 4.60721C17.7822 4.63382 17.7396 4.6471 17.6969 4.6471Z" fill="black"/>
<path id="Vector_6" fill-rule="evenodd" clip-rule="evenodd" d="M3.98113 8.84271C2.58784 8.84271 1.12614 7.89615 1.06361 7.85552L0.920898 7.76242V5.79913L1.01506 5.70673C1.15115 5.57225 1.43216 5.2161 1.43216 4.97448L1.51529 2.98163L3.60596 2.77769C7.19364 1.07301 8.56851 0.744189 12.1871 0.710938C14.6294 0.712416 16.1147 1.56808 17.8493 2.58557C18.2495 2.82054 18.6673 3.06512 19.116 3.31045C19.578 3.32522 21.9482 3.42128 23.8027 3.89641C25.5388 4.34197 26.6482 4.93604 26.7718 5.4873L26.9593 8.58483L26.6975 8.64541C26.1891 8.76363 25.7735 8.84122 24.6642 8.84122H24.4714V8.21316H24.6642C25.5145 8.21316 25.9162 8.1681 26.2943 8.09122L26.2818 7.92127L26.1538 5.57374C26.1045 5.49466 25.5131 4.98409 23.6483 4.50529C21.6966 4.00503 19.0513 3.93705 19.0256 3.93705L18.8835 3.89936C18.4032 3.63778 17.9596 3.37769 17.5337 3.12793C15.8108 2.11709 14.4698 1.32719 12.193 1.33976C8.67374 1.37153 7.34369 1.6937 3.82444 3.36956L3.71998 3.39838L2.11704 3.55429L2.05745 4.98777C2.05819 5.42817 1.71979 5.86265 1.54692 6.05626V7.41512C1.93607 7.64345 3.06379 8.23162 4.05543 8.21316H4.5792V8.84122H4.06425C4.03704 8.84196 4.00908 8.84271 3.98113 8.84271ZM8.24633 8.84122H20.1591V8.21316H8.24633V8.84122Z" fill="black"/>
<path id="Vector_7" fill-rule="evenodd" clip-rule="evenodd" d="M22.3153 5.05469C23.0465 5.05469 23.7115 5.35543 24.1941 5.84019H24.1949L24.1956 5.84089C24.6782 6.32565 24.9776 6.99434 24.9776 7.72812V8.84089H23.9845C24.1507 8.55422 24.2456 8.22095 24.2456 7.86554C24.2456 6.79485 23.382 5.92663 22.3153 5.92663C21.2494 5.92663 20.385 6.79485 20.385 7.86554C20.385 8.22095 20.4799 8.55422 20.6469 8.84089H19.6538V7.72812C19.6538 6.99434 19.9532 6.32565 20.4351 5.84089L20.4358 5.84019H20.4365C20.9191 5.35543 21.5848 5.05469 22.3153 5.05469Z" fill="black"/>
<path id="Vector_8" fill-rule="evenodd" clip-rule="evenodd" d="M20.7219 6.26531C21.1294 5.85599 21.6937 5.60254 22.3153 5.60254C22.9369 5.60254 23.5004 5.85599 23.9079 6.26531L23.9094 6.26606C24.3169 6.67617 24.5693 7.24145 24.5693 7.86582C24.5693 8.49094 24.3169 9.05697 23.9094 9.46633H23.9079C23.5004 9.87566 22.9369 10.1298 22.3153 10.1298C21.6937 10.1298 21.1294 9.8764 20.7219 9.46633C20.3143 9.05697 20.062 8.49094 20.062 7.86582C20.062 7.24145 20.3143 6.67617 20.7219 6.26606V6.26531ZM22.3153 6.28306C21.4457 6.28306 20.7403 6.99168 20.7403 7.86582C20.7403 8.73996 21.4457 9.44858 22.3153 9.44858C23.1855 9.44858 23.891 8.73996 23.891 7.86582C23.891 6.99168 23.1855 6.28306 22.3153 6.28306Z" fill="black"/>
<path id="Vector_9" fill-rule="evenodd" clip-rule="evenodd" d="M22.316 8.4405C22.6301 8.4405 22.8868 8.18262 22.8868 7.86636C22.8868 7.55084 22.6301 7.29297 22.316 7.29297C22.0011 7.29297 21.7451 7.55084 21.7451 7.86636C21.7451 8.18262 22.0011 8.4405 22.316 8.4405Z" fill="black"/>
<path id="Vector_10" fill-rule="evenodd" clip-rule="evenodd" d="M10.0186 6.97363V7.51007H18.8697L10.0186 6.97363Z" fill="black"/>
<path id="Vector_11" fill-rule="evenodd" clip-rule="evenodd" d="M24.3647 5.05469L24.9621 6.13125C25.1577 6.01895 25.4461 5.94579 25.6683 5.94579H25.683C25.9941 5.95022 26.3046 5.94579 26.615 5.94579L26.6032 5.89556C26.5783 5.79136 26.2818 5.28153 25.9758 5.05469C25.4387 5.05469 24.9017 5.05469 24.3647 5.05469Z" fill="black"/>
<path id="Vector_12" fill-rule="evenodd" clip-rule="evenodd" d="M25.9092 7.43654H26.6139V7.01758H25.9092V7.43654Z" fill="black"/>
<path id="Vector_13" fill-rule="evenodd" clip-rule="evenodd" d="M25.7975 6.88184H25.4885C25.3657 6.88184 25.2656 6.98235 25.2656 7.10574V7.34884C25.2656 7.47149 25.3657 7.572 25.4885 7.572H25.7975C25.9204 7.572 26.0204 7.47149 26.0204 7.34884V7.10574C26.0204 6.98235 25.9204 6.88184 25.7975 6.88184Z" fill="black"/>
<path id="Vector_14" fill-rule="evenodd" clip-rule="evenodd" d="M10.4346 4.82035H11.8771V4.40137H10.4346V4.82035Z" fill="black"/>
<path id="Vector_15" fill-rule="evenodd" clip-rule="evenodd" d="M6.413 5.05469C7.14421 5.05469 7.80922 5.35543 8.29178 5.84019H8.29253L8.29327 5.84089C8.7751 6.32565 9.07452 6.99434 9.07452 7.72812V8.84089H8.08141C8.24838 8.55422 8.34326 8.22095 8.34326 7.86554C8.34326 6.79485 7.47893 5.92663 6.413 5.92663C5.34707 5.92663 4.48195 6.79485 4.48195 7.86554C4.48195 8.22095 4.57758 8.55422 4.74384 8.84089H3.75146V7.72812C3.75146 6.99434 4.05086 6.32565 4.53271 5.84089L4.53344 5.84019H4.53418C5.01674 5.35543 5.68249 5.05469 6.413 5.05469Z" fill="black"/>
<path id="Vector_16" fill-rule="evenodd" clip-rule="evenodd" d="M4.82002 6.26531C5.22757 5.85599 5.79107 5.60254 6.41342 5.60254C7.03502 5.60254 7.59852 5.85599 8.00602 6.26531L8.00751 6.26606C8.41506 6.67617 8.66739 7.24145 8.66739 7.86582C8.66739 8.49094 8.41506 9.05697 8.00751 9.46633H8.00602C7.59852 9.87566 7.03502 10.1298 6.41342 10.1298C5.79107 10.1298 5.22757 9.8764 4.82002 9.46633C4.41248 9.05697 4.16016 8.49094 4.16016 7.86582C4.16016 7.24145 4.41248 6.67617 4.82002 6.26606V6.26531ZM6.41342 6.28306C5.54313 6.28306 4.83769 6.99168 4.83769 7.86582C4.83769 8.73996 5.54313 9.44858 6.41342 9.44858C7.28367 9.44858 7.98914 8.73996 7.98914 7.86582C7.98914 6.99168 7.28367 6.28306 6.41342 6.28306Z" fill="black"/>
<path id="Vector_17" fill-rule="evenodd" clip-rule="evenodd" d="M6.41315 8.4405C6.72797 8.4405 6.98398 8.18262 6.98398 7.86636C6.98398 7.55084 6.72797 7.29297 6.41315 7.29297C6.099 7.29297 5.84229 7.55084 5.84229 7.86636C5.84229 8.18262 6.099 8.4405 6.41315 8.4405Z" fill="black"/>
</g>
</svg>
