<svg width="21" height="20" viewBox="0 0 21 20" fill="none" xmlns="http://www.w3.org/2000/svg">
<g id="UI icon/message/light">
<path id="Vector 409 (Stroke)" fill-rule="evenodd" clip-rule="evenodd" d="M6.3335 7.49935C6.3335 7.03911 6.70659 6.66602 7.16683 6.66602H13.8335C14.2937 6.66602 14.6668 7.03911 14.6668 7.49935C14.6668 7.95959 14.2937 8.33268 13.8335 8.33268H7.16683C6.70659 8.33268 6.3335 7.95959 6.3335 7.49935Z" fill="#1870B4"/>
<path id="Vector 410 (Stroke)" fill-rule="evenodd" clip-rule="evenodd" d="M6.3335 10.8333C6.3335 10.3731 6.70659 10 7.16683 10H10.5002C10.9604 10 11.3335 10.3731 11.3335 10.8333C11.3335 11.2936 10.9604 11.6667 10.5002 11.6667H7.16683C6.70659 11.6667 6.3335 11.2936 6.3335 10.8333Z" fill="#1870B4"/>
<path id="Rectangle 192 (Stroke)" fill-rule="evenodd" clip-rule="evenodd" d="M6.09953 14.553C6.39906 14.3034 6.77661 14.1667 7.1665 14.1667H16.3332C16.7934 14.1667 17.1665 13.7936 17.1665 13.3333V5C17.1665 4.53976 16.7934 4.16667 16.3332 4.16667H4.6665C4.20627 4.16667 3.83317 4.53976 3.83317 5V16.4416L6.09953 14.553ZM7.1665 15.8333H16.3332C17.7139 15.8333 18.8332 14.714 18.8332 13.3333V5C18.8332 3.61929 17.7139 2.5 16.3332 2.5H4.6665C3.28579 2.5 2.1665 3.61929 2.1665 5V16.4416C2.1665 17.8547 3.8146 18.6266 4.90014 17.722L7.1665 15.8333Z" fill="#1870B4"/>
</g>
</svg>
