<svg width="327" height="320" viewBox="0 0 327 320" fill="none" xmlns="http://www.w3.org/2000/svg">
<path opacity="0.6" d="M325.441 256.375C325.537 261.322 321.451 266.36 313.338 271.196C305.286 275.996 293.533 280.432 278.909 284.259C249.673 291.91 209.138 297.083 164.242 297.949C119.346 298.816 78.6415 295.21 49.1319 288.692C34.3708 285.432 22.4557 281.453 14.2248 276.968C5.931 272.448 1.65411 267.572 1.55866 262.625C1.46321 257.678 5.5488 252.64 13.662 247.803C21.7138 243.004 33.4666 238.568 48.0909 234.741C77.3271 227.09 117.862 221.917 162.758 221.05C207.654 220.184 248.358 223.79 277.868 230.308C292.629 233.568 304.544 237.547 312.775 242.032C321.069 246.552 325.346 251.428 325.441 256.375Z" stroke="#9BD3FD" stroke-width="1.60294"/>
<path d="M264.833 125C264.833 126.473 266.027 127.667 267.5 127.667C268.973 127.667 270.167 126.473 270.167 125C270.167 123.527 268.973 122.333 267.5 122.333C266.027 122.333 264.833 123.527 264.833 125ZM297 13C296.724 13 296.5 13.2239 296.5 13.5C296.5 13.7761 296.724 14 297 14V13ZM267.944 125.229L322.436 19.5625L321.547 19.1042L267.056 124.771L267.944 125.229ZM318.437 13H297V14H318.437V13ZM322.436 19.5625C323.981 16.5675 321.806 13 318.437 13V14C321.058 14 322.749 16.7747 321.547 19.1042L322.436 19.5625Z" fill="#9BD3FD"/>
<rect x="138.5" y="0.5" width="158" height="25" rx="12.5" fill="#E2F2FE"/>
<rect x="138.5" y="0.5" width="158" height="25" rx="12.5" stroke="#9BD3FD"/>
<path fill-rule="evenodd" clip-rule="evenodd" d="M160.5 17.1658C161.052 17.1658 161.5 16.7181 161.5 16.1658V13.6665C161.5 13.3467 161.373 13.04 161.147 12.8138L159.5 11.1665H148.5L146.853 12.8132C146.627 13.0395 146.5 13.3465 146.5 13.6665V16.1665C146.5 16.7188 146.948 17.1665 147.5 17.1665L160.5 17.1658Z" stroke="#101828" stroke-linecap="round" stroke-linejoin="round"/>
<path fill-rule="evenodd" clip-rule="evenodd" d="M148.5 11.1665L149.649 8.10317C149.86 7.53994 150.398 7.16676 151 7.1665H157C157.602 7.16676 158.14 7.53994 158.351 8.10317L159.5 11.1698L148.5 11.1665Z" stroke="#101828" stroke-linecap="round" stroke-linejoin="round"/>
<path d="M148.5 11.1665L147.5 10.1665H146.5" stroke="#101828" stroke-linecap="round" stroke-linejoin="round"/>
<path d="M159.5 11.1665L160.5 10.1665H161.5" stroke="#101828" stroke-linecap="round" stroke-linejoin="round"/>
<path fill-rule="evenodd" clip-rule="evenodd" d="M147.5 17.166V18.166C147.5 18.7183 147.948 19.166 148.5 19.166C149.052 19.166 149.5 18.7183 149.5 18.166V17.166H147.5Z" stroke="#101828" stroke-linecap="round" stroke-linejoin="round"/>
<path fill-rule="evenodd" clip-rule="evenodd" d="M160.5 17.166V18.166C160.5 18.7183 160.052 19.166 159.5 19.166C158.948 19.166 158.5 18.7183 158.5 18.166V17.166H160.5Z" stroke="#101828" stroke-linecap="round" stroke-linejoin="round"/>
<path d="M161.391 13.166H159.31C159.137 13.1663 158.976 13.2561 158.885 13.4035C158.794 13.5509 158.785 13.7349 158.863 13.89L158.948 14.0607C159.286 14.7372 159.978 15.165 160.734 15.166H161.501" stroke="#101828" stroke-linecap="round" stroke-linejoin="round"/>
<path d="M146.61 13.166H148.691C148.864 13.1663 149.025 13.2561 149.116 13.4035C149.207 13.5509 149.215 13.7349 149.138 13.89L149.053 14.0607C148.714 14.7372 148.023 15.165 147.267 15.166H146.5" stroke="#101828" stroke-linecap="round" stroke-linejoin="round"/>
<path d="M169.75 17H167.653V16.0625H169.682C170.403 16.0625 171.001 15.9233 171.476 15.6449C171.95 15.3665 172.304 14.9702 172.537 14.456C172.77 13.9418 172.886 13.3295 172.886 12.6193C172.886 11.9148 172.771 11.3082 172.541 10.7997C172.311 10.2884 171.967 9.89631 171.51 9.62358C171.053 9.34801 170.483 9.21023 169.801 9.21023H167.602V8.27273H169.869C170.716 8.27273 171.44 8.44744 172.043 8.79688C172.645 9.14347 173.107 9.64205 173.428 10.2926C173.749 10.9403 173.909 11.7159 173.909 12.6193C173.909 13.5284 173.747 14.3111 173.423 14.9673C173.099 15.6207 172.628 16.1236 172.009 16.4759C171.389 16.8253 170.636 17 169.75 17ZM168.114 8.27273V17H167.057V8.27273H168.114ZM165.71 12.892V12.108H169.46V12.892H165.71ZM177.472 17.1534C177.057 17.1534 176.68 17.0753 176.342 16.919C176.004 16.7599 175.736 16.5312 175.537 16.233C175.338 15.9318 175.239 15.5682 175.239 15.142C175.239 14.767 175.313 14.4631 175.46 14.2301C175.608 13.9943 175.805 13.8097 176.053 13.6761C176.3 13.5426 176.572 13.4432 176.871 13.3778C177.172 13.3097 177.474 13.2557 177.778 13.2159C178.176 13.1648 178.499 13.1264 178.746 13.1009C178.996 13.0724 179.178 13.0256 179.291 12.9602C179.408 12.8949 179.466 12.7812 179.466 12.6193V12.5852C179.466 12.1648 179.351 11.8381 179.121 11.6051C178.893 11.3722 178.548 11.2557 178.085 11.2557C177.605 11.2557 177.229 11.3608 176.956 11.571C176.683 11.7812 176.491 12.0057 176.381 12.2443L175.426 11.9034C175.597 11.5057 175.824 11.196 176.108 10.9744C176.395 10.75 176.707 10.5937 177.045 10.5057C177.386 10.4148 177.722 10.3693 178.051 10.3693C178.261 10.3693 178.503 10.3949 178.776 10.446C179.051 10.4943 179.317 10.5952 179.572 10.7486C179.831 10.902 180.045 11.1335 180.216 11.4432C180.386 11.7528 180.472 12.1676 180.472 12.6875V17H179.466V16.1136H179.415C179.347 16.2557 179.233 16.4077 179.074 16.5696C178.915 16.7315 178.703 16.8693 178.439 16.983C178.175 17.0966 177.852 17.1534 177.472 17.1534ZM177.625 16.25C178.023 16.25 178.358 16.1719 178.631 16.0156C178.906 15.8594 179.114 15.6577 179.253 15.4105C179.395 15.1634 179.466 14.9034 179.466 14.6307V13.7102C179.423 13.7614 179.33 13.8082 179.185 13.8509C179.043 13.8906 178.878 13.9261 178.69 13.9574C178.506 13.9858 178.325 14.0114 178.149 14.0341C177.976 14.054 177.835 14.071 177.727 14.0852C177.466 14.1193 177.222 14.1747 176.994 14.2514C176.77 14.3253 176.588 14.4375 176.449 14.5881C176.313 14.7358 176.244 14.9375 176.244 15.1932C176.244 15.5426 176.374 15.8068 176.632 15.9858C176.893 16.1619 177.224 16.25 177.625 16.25ZM178.955 8.27273H179.892C179.892 8.73295 179.733 9.10938 179.415 9.40199C179.097 9.6946 178.665 9.84091 178.119 9.84091C177.582 9.84091 177.155 9.6946 176.837 9.40199C176.521 9.10938 176.364 8.73295 176.364 8.27273H177.301C177.301 8.49432 177.362 8.68892 177.484 8.85653C177.609 9.02415 177.821 9.10795 178.119 9.10795C178.418 9.10795 178.631 9.02415 178.759 8.85653C178.889 8.68892 178.955 8.49432 178.955 8.27273ZM183.313 13.0625V17H182.307V10.4545H183.279V11.4773H183.364C183.517 11.1449 183.75 10.8778 184.063 10.6761C184.375 10.4716 184.779 10.3693 185.273 10.3693C185.716 10.3693 186.104 10.4602 186.436 10.642C186.769 10.821 187.027 11.0938 187.212 11.4602C187.397 11.8239 187.489 12.2841 187.489 12.8409V17H186.483V12.9091C186.483 12.3949 186.35 11.9943 186.083 11.7074C185.816 11.4176 185.449 11.2727 184.983 11.2727C184.662 11.2727 184.375 11.3423 184.123 11.4815C183.873 11.6207 183.675 11.8239 183.53 12.0909C183.385 12.358 183.313 12.6818 183.313 13.0625ZM191.969 19.5909C191.483 19.5909 191.065 19.5284 190.716 19.4034C190.366 19.2812 190.075 19.1193 189.842 18.9176C189.612 18.7188 189.429 18.5057 189.293 18.2784L190.094 17.7159C190.185 17.8352 190.3 17.9716 190.439 18.125C190.578 18.2812 190.768 18.4162 191.01 18.5298C191.254 18.6463 191.574 18.7045 191.969 18.7045C192.497 18.7045 192.933 18.5767 193.277 18.321C193.621 18.0653 193.793 17.6648 193.793 17.1193V15.7898H193.707C193.634 15.9091 193.528 16.0568 193.392 16.233C193.259 16.4062 193.065 16.5611 192.812 16.6974C192.562 16.831 192.224 16.8977 191.798 16.8977C191.27 16.8977 190.795 16.7727 190.375 16.5227C189.957 16.2727 189.626 15.9091 189.382 15.4318C189.141 14.9545 189.02 14.375 189.02 13.6932C189.02 13.0227 189.138 12.4389 189.374 11.9418C189.609 11.4418 189.938 11.0554 190.358 10.7827C190.778 10.5071 191.264 10.3693 191.815 10.3693C192.241 10.3693 192.58 10.4403 192.83 10.5824C193.082 10.7216 193.276 10.8807 193.409 11.0597C193.545 11.2358 193.651 11.3807 193.724 11.4943H193.827V10.4545H194.798V17.1875C194.798 17.75 194.67 18.2074 194.415 18.5597C194.162 18.9148 193.821 19.1747 193.392 19.3395C192.966 19.5071 192.491 19.5909 191.969 19.5909ZM191.935 15.9943C192.338 15.9943 192.679 15.902 192.957 15.7173C193.236 15.5327 193.447 15.267 193.592 14.9205C193.737 14.5739 193.81 14.1591 193.81 13.6761C193.81 13.2045 193.739 12.7884 193.597 12.4276C193.455 12.0668 193.244 11.7841 192.966 11.5795C192.688 11.375 192.344 11.2727 191.935 11.2727C191.509 11.2727 191.153 11.3807 190.869 11.5966C190.588 11.8125 190.376 12.1023 190.234 12.4659C190.095 12.8295 190.026 13.233 190.026 13.6761C190.026 14.1307 190.097 14.5327 190.239 14.8821C190.384 15.2287 190.597 15.5014 190.878 15.7003C191.162 15.8963 191.514 15.9943 191.935 15.9943ZM200.151 17V8.27273H201.156V11.4943H201.241C201.315 11.3807 201.418 11.2358 201.548 11.0597C201.682 10.8807 201.872 10.7216 202.119 10.5824C202.369 10.4403 202.707 10.3693 203.134 10.3693C203.685 10.3693 204.17 10.5071 204.591 10.7827C205.011 11.0582 205.339 11.4489 205.575 11.9545C205.811 12.4602 205.929 13.0568 205.929 13.7443C205.929 14.4375 205.811 15.0384 205.575 15.5469C205.339 16.0526 205.013 16.4446 204.595 16.723C204.178 16.9986 203.696 17.1364 203.151 17.1364C202.73 17.1364 202.393 17.0668 202.141 16.9276C201.888 16.7855 201.693 16.625 201.557 16.446C201.42 16.2642 201.315 16.1136 201.241 15.9943H201.122V17H200.151ZM201.139 13.7273C201.139 14.2216 201.212 14.6577 201.357 15.0355C201.501 15.4105 201.713 15.7045 201.991 15.9176C202.27 16.1278 202.611 16.233 203.014 16.233C203.435 16.233 203.786 16.1222 204.067 15.9006C204.351 15.6761 204.564 15.375 204.706 14.9972C204.851 14.6165 204.923 14.1932 204.923 13.7273C204.923 13.267 204.852 12.8523 204.71 12.483C204.571 12.1108 204.359 11.8168 204.075 11.6009C203.794 11.3821 203.44 11.2727 203.014 11.2727C202.605 11.2727 202.261 11.3764 201.983 11.5838C201.705 11.7884 201.494 12.0753 201.352 12.4446C201.21 12.8111 201.139 13.2386 201.139 13.7273ZM209.393 17.1534C208.979 17.1534 208.602 17.0753 208.264 16.919C207.926 16.7599 207.658 16.5312 207.459 16.233C207.26 15.9318 207.161 15.5682 207.161 15.142C207.161 14.767 207.234 14.4631 207.382 14.2301C207.53 13.9943 207.727 13.8097 207.974 13.6761C208.222 13.5426 208.494 13.4432 208.793 13.3778C209.094 13.3097 209.396 13.2557 209.7 13.2159C210.098 13.1648 210.42 13.1264 210.668 13.1009C210.918 13.0724 211.099 13.0256 211.213 12.9602C211.33 12.8949 211.388 12.7812 211.388 12.6193V12.5852C211.388 12.1648 211.273 11.8381 211.043 11.6051C210.815 11.3722 210.47 11.2557 210.007 11.2557C209.527 11.2557 209.151 11.3608 208.878 11.571C208.605 11.7812 208.413 12.0057 208.303 12.2443L207.348 11.9034C207.518 11.5057 207.746 11.196 208.03 10.9744C208.317 10.75 208.629 10.5937 208.967 10.5057C209.308 10.4148 209.643 10.3693 209.973 10.3693C210.183 10.3693 210.425 10.3949 210.697 10.446C210.973 10.4943 211.239 10.5952 211.494 10.7486C211.753 10.902 211.967 11.1335 212.138 11.4432C212.308 11.7528 212.393 12.1676 212.393 12.6875V17H211.388V16.1136H211.337C211.268 16.2557 211.155 16.4077 210.996 16.5696C210.837 16.7315 210.625 16.8693 210.361 16.983C210.097 17.0966 209.774 17.1534 209.393 17.1534ZM209.547 16.25C209.945 16.25 210.28 16.1719 210.553 16.0156C210.828 15.8594 211.036 15.6577 211.175 15.4105C211.317 15.1634 211.388 14.9034 211.388 14.6307V13.7102C211.345 13.7614 211.251 13.8082 211.107 13.8509C210.964 13.8906 210.8 13.9261 210.612 13.9574C210.428 13.9858 210.247 14.0114 210.071 14.0341C209.898 14.054 209.757 14.071 209.649 14.0852C209.388 14.1193 209.143 14.1747 208.916 14.2514C208.692 14.3253 208.51 14.4375 208.371 14.5881C208.234 14.7358 208.166 14.9375 208.166 15.1932C208.166 15.5426 208.295 15.8068 208.554 15.9858C208.815 16.1619 209.146 16.25 209.547 16.25ZM209.581 9.56818L210.621 7.59091H211.797L210.467 9.56818H209.581ZM215.235 13.0625V17H214.229V10.4545H215.201V11.4773H215.286C215.439 11.1449 215.672 10.8778 215.985 10.6761C216.297 10.4716 216.701 10.3693 217.195 10.3693C217.638 10.3693 218.026 10.4602 218.358 10.642C218.691 10.821 218.949 11.0938 219.134 11.4602C219.319 11.8239 219.411 12.2841 219.411 12.8409V17H218.405V12.9091C218.405 12.3949 218.272 11.9943 218.005 11.7074C217.738 11.4176 217.371 11.2727 216.905 11.2727C216.584 11.2727 216.297 11.3423 216.044 11.4815C215.794 11.6207 215.597 11.8239 215.452 12.0909C215.307 12.358 215.235 12.6818 215.235 13.0625ZM225.374 10.4545L226.942 13.1307L228.51 10.4545H229.669L227.555 13.7273L229.669 17H228.51L226.942 14.4602L225.374 17H224.214L226.294 13.7273L224.214 10.4545H225.374ZM233.579 17.1364C232.948 17.1364 232.404 16.9972 231.947 16.7188C231.492 16.4375 231.141 16.0455 230.894 15.5426C230.65 15.0369 230.528 14.4489 230.528 13.7784C230.528 13.108 230.65 12.517 230.894 12.0057C231.141 11.4915 231.485 11.0909 231.925 10.804C232.369 10.5142 232.886 10.3693 233.477 10.3693C233.817 10.3693 234.154 10.4261 234.487 10.5398C234.819 10.6534 235.121 10.8381 235.394 11.0938C235.667 11.3466 235.884 11.6818 236.046 12.0994C236.208 12.517 236.289 13.0312 236.289 13.642V14.0682H231.244V13.1989H235.266C235.266 12.8295 235.192 12.5 235.045 12.2102C234.9 11.9205 234.692 11.6918 234.423 11.5241C234.156 11.3565 233.84 11.2727 233.477 11.2727C233.076 11.2727 232.729 11.3722 232.437 11.571C232.147 11.767 231.924 12.0227 231.768 12.3381C231.612 12.6534 231.533 12.9915 231.533 13.3523V13.9318C231.533 14.4261 231.619 14.8452 231.789 15.1889C231.962 15.5298 232.202 15.7898 232.509 15.9688C232.816 16.1449 233.173 16.233 233.579 16.233C233.843 16.233 234.082 16.196 234.295 16.1222C234.511 16.0455 234.697 15.9318 234.853 15.7812C235.009 15.6278 235.13 15.4375 235.215 15.2102L236.187 15.483C236.085 15.8125 235.913 16.1023 235.671 16.3523C235.43 16.5994 235.131 16.7926 234.776 16.9318C234.421 17.0682 234.022 17.1364 233.579 17.1364ZM241.194 17V10.4545H242.165V11.4773H242.251C242.387 11.1278 242.607 10.8565 242.911 10.6634C243.215 10.4673 243.58 10.3693 244.006 10.3693C244.438 10.3693 244.798 10.4673 245.085 10.6634C245.374 10.8565 245.6 11.1278 245.762 11.4773H245.83C245.998 11.1392 246.249 10.8707 246.585 10.6719C246.92 10.4702 247.322 10.3693 247.79 10.3693C248.376 10.3693 248.854 10.5526 249.227 10.919C249.599 11.2827 249.785 11.8494 249.785 12.6193V17H248.779V12.6193C248.779 12.1364 248.647 11.7912 248.383 11.5838C248.119 11.3764 247.808 11.2727 247.45 11.2727C246.989 11.2727 246.633 11.4119 246.38 11.6903C246.127 11.9659 246.001 12.3153 246.001 12.7386V17H244.978V12.517C244.978 12.1449 244.857 11.8452 244.616 11.6179C244.374 11.3878 244.063 11.2727 243.683 11.2727C243.421 11.2727 243.177 11.3423 242.95 11.4815C242.725 11.6207 242.543 11.8139 242.404 12.0611C242.268 12.3054 242.2 12.5881 242.2 12.9091V17H241.194ZM251.624 17V10.4545H252.629V17H251.624ZM252.135 9.36364C251.939 9.36364 251.77 9.29688 251.628 9.16335C251.489 9.02983 251.419 8.86932 251.419 8.68182C251.419 8.49432 251.489 8.33381 251.628 8.20028C251.77 8.06676 251.939 8 252.135 8C252.331 8 252.499 8.06676 252.638 8.20028C252.78 8.33381 252.851 8.49432 252.851 8.68182C252.851 8.86932 252.78 9.02983 252.638 9.16335C252.499 9.29688 252.331 9.36364 252.135 9.36364ZM257.216 17.1364C256.585 17.1364 256.041 16.9972 255.583 16.7188C255.129 16.4375 254.778 16.0455 254.531 15.5426C254.287 15.0369 254.164 14.4489 254.164 13.7784C254.164 13.108 254.287 12.517 254.531 12.0057C254.778 11.4915 255.122 11.0909 255.562 10.804C256.005 10.5142 256.522 10.3693 257.113 10.3693C257.454 10.3693 257.791 10.4261 258.123 10.5398C258.456 10.6534 258.758 10.8381 259.031 11.0938C259.304 11.3466 259.521 11.6818 259.683 12.0994C259.845 12.517 259.926 13.0312 259.926 13.642V14.0682H254.88V13.1989H258.903C258.903 12.8295 258.829 12.5 258.681 12.2102C258.537 11.9205 258.329 11.6918 258.059 11.5241C257.792 11.3565 257.477 11.2727 257.113 11.2727C256.713 11.2727 256.366 11.3722 256.074 11.571C255.784 11.767 255.561 12.0227 255.404 12.3381C255.248 12.6534 255.17 12.9915 255.17 13.3523V13.9318C255.17 14.4261 255.255 14.8452 255.426 15.1889C255.599 15.5298 255.839 15.7898 256.146 15.9688C256.453 16.1449 256.809 16.233 257.216 16.233C257.48 16.233 257.718 16.196 257.931 16.1222C258.147 16.0455 258.333 15.9318 258.49 15.7812C258.646 15.6278 258.767 15.4375 258.852 15.2102L259.824 15.483C259.721 15.8125 259.549 16.1023 259.308 16.3523C259.066 16.5994 258.768 16.7926 258.413 16.9318C258.058 17.0682 257.659 17.1364 257.216 17.1364ZM257.454 8.44318L259.244 9.875H258.187L257.045 8.97159L255.903 9.875H254.846L256.636 8.44318H257.454ZM258.102 6.94318L258.579 7.07955C258.579 7.30966 258.485 7.52131 258.298 7.71449C258.11 7.90483 257.88 8 257.608 8C257.463 8 257.341 7.98011 257.241 7.94034C257.142 7.89773 257.052 7.84943 256.973 7.79545C256.896 7.74148 256.815 7.6946 256.73 7.65483C256.647 7.61222 256.548 7.59091 256.431 7.59091C256.312 7.59091 256.2 7.63636 256.095 7.72727C255.99 7.81818 255.937 7.91477 255.937 8.01705L255.477 7.89773C255.477 7.66761 255.568 7.45455 255.75 7.25852C255.931 7.05966 256.159 6.96023 256.431 6.96023C256.551 6.96023 256.659 6.98011 256.755 7.01989C256.852 7.05966 256.944 7.10511 257.032 7.15625C257.12 7.20739 257.21 7.25284 257.301 7.29261C257.395 7.33239 257.497 7.35227 257.608 7.35227C257.727 7.35227 257.839 7.30966 257.944 7.22443C258.049 7.1392 258.102 7.04545 258.102 6.94318ZM262.461 13.0625V17H261.456V10.4545H262.427V11.4773H262.512C262.666 11.1449 262.899 10.8778 263.211 10.6761C263.524 10.4716 263.927 10.3693 264.422 10.3693C264.865 10.3693 265.252 10.4602 265.585 10.642C265.917 10.821 266.176 11.0938 266.36 11.4602C266.545 11.8239 266.637 12.2841 266.637 12.8409V17H265.632V12.9091C265.632 12.3949 265.498 11.9943 265.231 11.7074C264.964 11.4176 264.598 11.2727 264.132 11.2727C263.811 11.2727 263.524 11.3423 263.271 11.4815C263.021 11.6207 262.824 11.8239 262.679 12.0909C262.534 12.358 262.461 12.6818 262.461 13.0625ZM271.85 19.4545V10.4545H272.822V11.4943H272.941C273.015 11.3807 273.117 11.2358 273.248 11.0597C273.381 10.8807 273.572 10.7216 273.819 10.5824C274.069 10.4403 274.407 10.3693 274.833 10.3693C275.384 10.3693 275.87 10.5071 276.29 10.7827C276.711 11.0582 277.039 11.4489 277.275 11.9545C277.511 12.4602 277.629 13.0568 277.629 13.7443C277.629 14.4375 277.511 15.0384 277.275 15.5469C277.039 16.0526 276.712 16.4446 276.295 16.723C275.877 16.9986 275.396 17.1364 274.85 17.1364C274.43 17.1364 274.093 17.0668 273.84 16.9276C273.587 16.7855 273.393 16.625 273.256 16.446C273.12 16.2642 273.015 16.1136 272.941 15.9943H272.856V19.4545H271.85ZM272.839 13.7273C272.839 14.2216 272.911 14.6577 273.056 15.0355C273.201 15.4105 273.413 15.7045 273.691 15.9176C273.969 16.1278 274.31 16.233 274.714 16.233C275.134 16.233 275.485 16.1222 275.766 15.9006C276.05 15.6761 276.263 15.375 276.406 14.9972C276.55 14.6165 276.623 14.1932 276.623 13.7273C276.623 13.267 276.552 12.8523 276.41 12.483C276.271 12.1108 276.059 11.8168 275.775 11.6009C275.494 11.3821 275.14 11.2727 274.714 11.2727C274.305 11.2727 273.961 11.3764 273.683 11.5838C273.404 11.7884 273.194 12.0753 273.052 12.4446C272.91 12.8111 272.839 13.2386 272.839 13.7273ZM280.168 13.0625V17H279.163V8.27273H280.168V11.4773H280.254C280.407 11.1392 280.637 10.8707 280.944 10.6719C281.254 10.4702 281.665 10.3693 282.18 10.3693C282.626 10.3693 283.016 10.4588 283.352 10.6378C283.687 10.8139 283.947 11.0852 284.131 11.4517C284.319 11.8153 284.413 12.2784 284.413 12.8409V17H283.407V12.9091C283.407 12.3892 283.272 11.9872 283.002 11.7031C282.735 11.4162 282.364 11.2727 281.89 11.2727C281.56 11.2727 281.265 11.3423 281.004 11.4815C280.745 11.6207 280.54 11.8239 280.39 12.0909C280.242 12.358 280.168 12.6818 280.168 13.0625ZM286.252 17V10.4545H287.258V17H286.252ZM286.304 9.56818L287.343 7.59091H288.52L287.19 9.56818H286.304Z" fill="#101828"/>
<path d="M70.6667 152C70.6667 153.473 69.4728 154.667 68 154.667C66.5272 154.667 65.3333 153.473 65.3333 152C65.3333 150.527 66.5272 149.333 68 149.333C69.4728 149.333 70.6667 150.527 70.6667 152ZM44.2474 68.5C44.5236 68.5 44.7474 68.7239 44.7474 69C44.7474 69.2761 44.5236 69.5 44.2474 69.5V68.5ZM23.4713 75.0025L23.9042 74.7522L23.4713 75.0025ZM67.5672 152.25L23.0385 75.2528L23.9042 74.7522L68.4328 151.75L67.5672 152.25ZM26.934 68.5H44.2474V69.5H26.934V68.5ZM23.0385 75.2528C21.3036 72.2528 23.4684 68.5 26.934 68.5V69.5C24.2386 69.5 22.5548 72.4189 23.9042 74.7522L23.0385 75.2528Z" fill="#9BD3FD"/>
<rect x="44.5" y="56.5" width="145" height="25" rx="12.5" fill="#E2F2FE"/>
<rect x="44.5" y="56.5" width="145" height="25" rx="12.5" stroke="#9BD3FD"/>
<path fill-rule="evenodd" clip-rule="evenodd" d="M63.5999 66.6C63.5999 64.6118 61.9881 63 59.9999 63C58.0117 63 56.3999 64.6118 56.3999 66.6V68.6H63.5999V66.6Z" stroke="black" stroke-linecap="round" stroke-linejoin="round"/>
<path d="M58.3999 66.2002V67.0002" stroke="black" stroke-linecap="round" stroke-linejoin="round"/>
<path d="M61.6001 66.2002V67.0002" stroke="black" stroke-linecap="round" stroke-linejoin="round"/>
<path fill-rule="evenodd" clip-rule="evenodd" d="M56.3999 68.6001C57.4932 74.0518 58.3999 75.0001 59.9999 75.0001C61.5999 75.0001 62.5098 74.0518 63.5999 68.6001H56.3999Z" stroke="black" stroke-linecap="round" stroke-linejoin="round"/>
<path d="M56.3998 68.6001H55.5998C55.158 68.6001 54.7998 68.9583 54.7998 69.4001V71.8001" stroke="black" stroke-linecap="round" stroke-linejoin="round"/>
<path d="M54 73.3998V72.5998C54 72.158 54.3582 71.7998 54.8 71.7998C55.2418 71.7998 55.6 72.158 55.6 72.5998V73.3998" stroke="black" stroke-linecap="round" stroke-linejoin="round"/>
<path d="M63.6001 68.6001H64.4001C64.8419 68.6001 65.2001 68.9583 65.2001 69.4001V71.8001" stroke="black" stroke-linecap="round" stroke-linejoin="round"/>
<path d="M65.9999 73.3998V72.5998C65.9999 72.158 65.6417 71.7998 65.1999 71.7998C64.7581 71.7998 64.3999 72.158 64.3999 72.5998V73.3998" stroke="black" stroke-linecap="round" stroke-linejoin="round"/>
<path d="M75.75 73H73.6534V72.0625H75.6818C76.4034 72.0625 77.0014 71.9233 77.4759 71.6449C77.9503 71.3665 78.304 70.9702 78.5369 70.456C78.7699 69.9418 78.8864 69.3295 78.8864 68.6193C78.8864 67.9148 78.7713 67.3082 78.5412 66.7997C78.3111 66.2884 77.9673 65.8963 77.5099 65.6236C77.0526 65.348 76.483 65.2102 75.8011 65.2102H73.6023V64.2727H75.8693C76.7159 64.2727 77.4403 64.4474 78.0426 64.7969C78.6449 65.1435 79.1065 65.642 79.4276 66.2926C79.7486 66.9403 79.9091 67.7159 79.9091 68.6193C79.9091 69.5284 79.7472 70.3111 79.4233 70.9673C79.0994 71.6207 78.6278 72.1236 78.0085 72.4759C77.3892 72.8253 76.6364 73 75.75 73ZM74.1136 64.2727V73H73.0568V64.2727H74.1136ZM71.7102 68.892V68.108H75.4602V68.892H71.7102ZM81.5455 73V66.4545H82.5511V73H81.5455ZM82.0568 65.3636C81.8608 65.3636 81.6918 65.2969 81.5497 65.1634C81.4105 65.0298 81.3409 64.8693 81.3409 64.6818C81.3409 64.4943 81.4105 64.3338 81.5497 64.2003C81.6918 64.0668 81.8608 64 82.0568 64C82.2528 64 82.4205 64.0668 82.5597 64.2003C82.7017 64.3338 82.7727 64.4943 82.7727 64.6818C82.7727 64.8693 82.7017 65.0298 82.5597 65.1634C82.4205 65.2969 82.2528 65.3636 82.0568 65.3636ZM82.0568 75.1648C81.8608 75.1648 81.6918 75.098 81.5497 74.9645C81.4105 74.831 81.3409 74.6705 81.3409 74.483C81.3409 74.2955 81.4105 74.1349 81.5497 74.0014C81.6918 73.8679 81.8608 73.8011 82.0568 73.8011C82.2528 73.8011 82.4205 73.8679 82.5597 74.0014C82.7017 74.1349 82.7727 74.2955 82.7727 74.483C82.7727 74.6705 82.7017 74.831 82.5597 74.9645C82.4205 75.098 82.2528 75.1648 82.0568 75.1648ZM85.3988 69.0625V73H84.3931V66.4545H85.3647V67.4773H85.4499C85.6033 67.1449 85.8363 66.8778 86.1488 66.6761C86.4613 66.4716 86.8647 66.3693 87.359 66.3693C87.8022 66.3693 88.19 66.4602 88.5224 66.642C88.8548 66.821 89.1133 67.0938 89.2979 67.4602C89.4826 67.8239 89.5749 68.2841 89.5749 68.8409V73H88.5692V68.9091C88.5692 68.3949 88.4357 67.9943 88.1687 67.7074C87.9016 67.4176 87.5352 67.2727 87.0692 67.2727C86.7482 67.2727 86.4613 67.3423 86.2085 67.4815C85.9585 67.6207 85.761 67.8239 85.6161 68.0909C85.4712 68.358 85.3988 68.6818 85.3988 69.0625ZM92.4183 69.0625V73H91.4126V64.2727H92.4183V67.4773H92.5036C92.657 67.1392 92.8871 66.8707 93.1939 66.6719C93.5036 66.4702 93.9155 66.3693 94.4297 66.3693C94.8757 66.3693 95.2663 66.4588 95.6016 66.6378C95.9368 66.8139 96.1967 67.0852 96.3814 67.4517C96.5689 67.8153 96.6626 68.2784 96.6626 68.8409V73H95.657V68.9091C95.657 68.3892 95.522 67.9872 95.2521 67.7031C94.9851 67.4162 94.6143 67.2727 94.1399 67.2727C93.8104 67.2727 93.5149 67.3423 93.2536 67.4815C92.995 67.6207 92.7905 67.8239 92.6399 68.0909C92.4922 68.358 92.4183 68.6818 92.4183 69.0625ZM104.52 75.5909C104.034 75.5909 103.616 75.5284 103.267 75.4034C102.917 75.2812 102.626 75.1193 102.393 74.9176C102.163 74.7188 101.98 74.5057 101.843 74.2784L102.645 73.7159C102.735 73.8352 102.85 73.9716 102.99 74.125C103.129 74.2812 103.319 74.4162 103.561 74.5298C103.805 74.6463 104.125 74.7045 104.52 74.7045C105.048 74.7045 105.484 74.5767 105.828 74.321C106.172 74.0653 106.343 73.6648 106.343 73.1193V71.7898H106.258C106.184 71.9091 106.079 72.0568 105.943 72.233C105.809 72.4062 105.616 72.5611 105.363 72.6974C105.113 72.831 104.775 72.8977 104.349 72.8977C103.821 72.8977 103.346 72.7727 102.926 72.5227C102.508 72.2727 102.177 71.9091 101.933 71.4318C101.691 70.9545 101.571 70.375 101.571 69.6932C101.571 69.0227 101.689 68.4389 101.924 67.9418C102.16 67.4418 102.488 67.0554 102.909 66.7827C103.329 66.5071 103.815 66.3693 104.366 66.3693C104.792 66.3693 105.13 66.4403 105.38 66.5824C105.633 66.7216 105.826 66.8807 105.96 67.0597C106.096 67.2358 106.201 67.3807 106.275 67.4943H106.377V66.4545H107.349V73.1875C107.349 73.75 107.221 74.2074 106.966 74.5597C106.713 74.9148 106.372 75.1747 105.943 75.3395C105.517 75.5071 105.042 75.5909 104.52 75.5909ZM104.485 71.9943C104.889 71.9943 105.23 71.902 105.508 71.7173C105.787 71.5327 105.998 71.267 106.143 70.9205C106.288 70.5739 106.36 70.1591 106.36 69.6761C106.36 69.2045 106.289 68.7884 106.147 68.4276C106.005 68.0668 105.795 67.7841 105.517 67.5795C105.238 67.375 104.895 67.2727 104.485 67.2727C104.059 67.2727 103.704 67.3807 103.42 67.5966C103.139 67.8125 102.927 68.1023 102.785 68.4659C102.646 68.8295 102.576 69.233 102.576 69.6761C102.576 70.1307 102.647 70.5327 102.789 70.8821C102.934 71.2287 103.147 71.5014 103.429 71.7003C103.713 71.8963 104.065 71.9943 104.485 71.9943ZM109.19 73V66.4545H110.196V73H109.19ZM109.701 65.3636C109.505 65.3636 109.336 65.2969 109.194 65.1634C109.055 65.0298 108.985 64.8693 108.985 64.6818C108.985 64.4943 109.055 64.3338 109.194 64.2003C109.336 64.0668 109.505 64 109.701 64C109.897 64 110.065 64.0668 110.204 64.2003C110.346 64.3338 110.417 64.4943 110.417 64.6818C110.417 64.8693 110.346 65.0298 110.204 65.1634C110.065 65.2969 109.897 65.3636 109.701 65.3636ZM113.964 73.1534C113.549 73.1534 113.173 73.0753 112.835 72.919C112.496 72.7599 112.228 72.5312 112.029 72.233C111.83 71.9318 111.731 71.5682 111.731 71.142C111.731 70.767 111.805 70.4631 111.952 70.2301C112.1 69.9943 112.298 69.8097 112.545 69.6761C112.792 69.5426 113.065 69.4432 113.363 69.3778C113.664 69.3097 113.967 69.2557 114.271 69.2159C114.668 69.1648 114.991 69.1264 115.238 69.1009C115.488 69.0724 115.67 69.0256 115.783 68.9602C115.9 68.8949 115.958 68.7812 115.958 68.6193V68.5852C115.958 68.1648 115.843 67.8381 115.613 67.6051C115.386 67.3722 115.04 67.2557 114.577 67.2557C114.097 67.2557 113.721 67.3608 113.448 67.571C113.175 67.7812 112.984 68.0057 112.873 68.2443L111.918 67.9034C112.089 67.5057 112.316 67.196 112.6 66.9744C112.887 66.75 113.2 66.5937 113.538 66.5057C113.879 66.4148 114.214 66.3693 114.543 66.3693C114.754 66.3693 114.995 66.3949 115.268 66.446C115.543 66.4943 115.809 66.5952 116.065 66.7486C116.323 66.902 116.538 67.1335 116.708 67.4432C116.879 67.7528 116.964 68.1676 116.964 68.6875V73H115.958V72.1136H115.907C115.839 72.2557 115.725 72.4077 115.566 72.5696C115.407 72.7315 115.195 72.8693 114.931 72.983C114.667 73.0966 114.344 73.1534 113.964 73.1534ZM114.117 72.25C114.515 72.25 114.85 72.1719 115.123 72.0156C115.398 71.8594 115.606 71.6577 115.745 71.4105C115.887 71.1634 115.958 70.9034 115.958 70.6307V69.7102C115.915 69.7614 115.822 69.8082 115.677 69.8509C115.535 69.8906 115.37 69.9261 115.183 69.9574C114.998 69.9858 114.817 70.0114 114.641 70.0341C114.468 70.054 114.327 70.071 114.219 70.0852C113.958 70.1193 113.714 70.1747 113.487 70.2514C113.262 70.3253 113.08 70.4375 112.941 70.5881C112.805 70.7358 112.737 70.9375 112.737 71.1932C112.737 71.5426 112.866 71.8068 113.124 71.9858C113.386 72.1619 113.717 72.25 114.117 72.25ZM114.151 65.5682L115.191 63.5909H116.367L115.038 65.5682H114.151ZM122.924 66.4545L124.493 69.1307L126.061 66.4545H127.22L125.106 69.7273L127.22 73H126.061L124.493 70.4602L122.924 73H121.765L123.845 69.7273L121.765 66.4545H122.924ZM131.13 73.1364C130.499 73.1364 129.955 72.9972 129.498 72.7188C129.043 72.4375 128.692 72.0455 128.445 71.5426C128.201 71.0369 128.078 70.4489 128.078 69.7784C128.078 69.108 128.201 68.517 128.445 68.0057C128.692 67.4915 129.036 67.0909 129.476 66.804C129.919 66.5142 130.436 66.3693 131.027 66.3693C131.368 66.3693 131.705 66.4261 132.037 66.5398C132.37 66.6534 132.672 66.8381 132.945 67.0938C133.218 67.3466 133.435 67.6818 133.597 68.0994C133.759 68.517 133.84 69.0312 133.84 69.642V70.0682H128.794V69.1989H132.817C132.817 68.8295 132.743 68.5 132.596 68.2102C132.451 67.9205 132.243 67.6918 131.973 67.5241C131.706 67.3565 131.391 67.2727 131.027 67.2727C130.627 67.2727 130.28 67.3722 129.988 67.571C129.698 67.767 129.475 68.0227 129.319 68.3381C129.162 68.6534 129.084 68.9915 129.084 69.3523V69.9318C129.084 70.4261 129.169 70.8452 129.34 71.1889C129.513 71.5298 129.753 71.7898 130.06 71.9688C130.367 72.1449 130.723 72.233 131.13 72.233C131.394 72.233 131.632 72.196 131.846 72.1222C132.061 72.0455 132.248 71.9318 132.404 71.7812C132.56 71.6278 132.681 71.4375 132.766 71.2102L133.738 71.483C133.635 71.8125 133.463 72.1023 133.222 72.3523C132.98 72.5994 132.682 72.7926 132.327 72.9318C131.972 73.0682 131.573 73.1364 131.13 73.1364ZM138.881 73V64.2727H139.887V67.4943H139.972C140.046 67.3807 140.148 67.2358 140.279 67.0597C140.412 66.8807 140.603 66.7216 140.85 66.5824C141.1 66.4403 141.438 66.3693 141.864 66.3693C142.415 66.3693 142.901 66.5071 143.321 66.7827C143.742 67.0582 144.07 67.4489 144.306 67.9545C144.542 68.4602 144.659 69.0568 144.659 69.7443C144.659 70.4375 144.542 71.0384 144.306 71.5469C144.07 72.0526 143.743 72.4446 143.326 72.723C142.908 72.9986 142.426 73.1364 141.881 73.1364C141.461 73.1364 141.124 73.0668 140.871 72.9276C140.618 72.7855 140.424 72.625 140.287 72.446C140.151 72.2642 140.046 72.1136 139.972 71.9943H139.853V73H138.881ZM139.87 69.7273C139.87 70.2216 139.942 70.6577 140.087 71.0355C140.232 71.4105 140.444 71.7045 140.722 71.9176C141 72.1278 141.341 72.233 141.745 72.233C142.165 72.233 142.516 72.1222 142.797 71.9006C143.081 71.6761 143.294 71.375 143.436 70.9972C143.581 70.6165 143.654 70.1932 143.654 69.7273C143.654 69.267 143.583 68.8523 143.441 68.483C143.301 68.1108 143.09 67.8168 142.806 67.6009C142.525 67.3821 142.171 67.2727 141.745 67.2727C141.336 67.2727 140.992 67.3764 140.713 67.5838C140.435 67.7884 140.225 68.0753 140.083 68.4446C139.941 68.8111 139.87 69.2386 139.87 69.7273ZM148.124 73.1534C147.709 73.1534 147.333 73.0753 146.995 72.919C146.657 72.7599 146.388 72.5312 146.189 72.233C145.99 71.9318 145.891 71.5682 145.891 71.142C145.891 70.767 145.965 70.4631 146.113 70.2301C146.26 69.9943 146.458 69.8097 146.705 69.6761C146.952 69.5426 147.225 69.4432 147.523 69.3778C147.824 69.3097 148.127 69.2557 148.431 69.2159C148.828 69.1648 149.151 69.1264 149.398 69.1009C149.648 69.0724 149.83 69.0256 149.944 68.9602C150.06 68.8949 150.118 68.7812 150.118 68.6193V68.5852C150.118 68.1648 150.003 67.8381 149.773 67.6051C149.546 67.3722 149.201 67.2557 148.738 67.2557C148.257 67.2557 147.881 67.3608 147.608 67.571C147.336 67.7812 147.144 68.0057 147.033 68.2443L146.078 67.9034C146.249 67.5057 146.476 67.196 146.76 66.9744C147.047 66.75 147.36 66.5937 147.698 66.5057C148.039 66.4148 148.374 66.3693 148.703 66.3693C148.914 66.3693 149.155 66.3949 149.428 66.446C149.703 66.4943 149.969 66.5952 150.225 66.7486C150.483 66.902 150.698 67.1335 150.868 67.4432C151.039 67.7528 151.124 68.1676 151.124 68.6875V73H150.118V72.1136H150.067C149.999 72.2557 149.885 72.4077 149.726 72.5696C149.567 72.7315 149.355 72.8693 149.091 72.983C148.827 73.0966 148.505 73.1534 148.124 73.1534ZM148.277 72.25C148.675 72.25 149.01 72.1719 149.283 72.0156C149.559 71.8594 149.766 71.6577 149.905 71.4105C150.047 71.1634 150.118 70.9034 150.118 70.6307V69.7102C150.076 69.7614 149.982 69.8082 149.837 69.8509C149.695 69.8906 149.53 69.9261 149.343 69.9574C149.158 69.9858 148.978 70.0114 148.801 70.0341C148.628 70.054 148.488 70.071 148.38 70.0852C148.118 70.1193 147.874 70.1747 147.647 70.2514C147.422 70.3253 147.24 70.4375 147.101 70.5881C146.965 70.7358 146.897 70.9375 146.897 71.1932C146.897 71.5426 147.026 71.8068 147.284 71.9858C147.546 72.1619 147.877 72.25 148.277 72.25ZM149.573 64.4602H150.527C150.527 64.8182 150.367 65.1122 150.046 65.3423C149.728 65.5724 149.292 65.6875 148.738 65.6875C148.184 65.6875 147.746 65.5724 147.425 65.3423C147.107 65.1122 146.948 64.8182 146.948 64.4602H147.902C147.902 64.6392 147.965 64.7955 148.09 64.929C148.215 65.0597 148.431 65.125 148.738 65.125C149.036 65.125 149.249 65.0597 149.377 64.929C149.507 64.7955 149.573 64.6392 149.573 64.4602ZM148.533 64.3239L147.578 63.1648H148.533L149.164 64.3239H148.533ZM153.965 69.0625V73H152.96V66.4545H153.931V67.4773H154.016C154.17 67.1449 154.403 66.8778 154.715 66.6761C155.028 66.4716 155.431 66.3693 155.925 66.3693C156.369 66.3693 156.756 66.4602 157.089 66.642C157.421 66.821 157.68 67.0938 157.864 67.4602C158.049 67.8239 158.141 68.2841 158.141 68.8409V73H157.136V68.9091C157.136 68.3949 157.002 67.9943 156.735 67.7074C156.468 67.4176 156.102 67.2727 155.636 67.2727C155.315 67.2727 155.028 67.3423 154.775 67.4815C154.525 67.6207 154.327 67.8239 154.183 68.0909C154.038 68.358 153.965 68.6818 153.965 69.0625ZM162.621 75.5909C162.135 75.5909 161.718 75.5284 161.368 75.4034C161.019 75.2812 160.728 75.1193 160.495 74.9176C160.265 74.7188 160.081 74.5057 159.945 74.2784L160.746 73.7159C160.837 73.8352 160.952 73.9716 161.091 74.125C161.23 74.2812 161.421 74.4162 161.662 74.5298C161.907 74.6463 162.226 74.7045 162.621 74.7045C163.15 74.7045 163.586 74.5767 163.929 74.321C164.273 74.0653 164.445 73.6648 164.445 73.1193V71.7898H164.36C164.286 71.9091 164.181 72.0568 164.044 72.233C163.911 72.4062 163.718 72.5611 163.465 72.6974C163.215 72.831 162.877 72.8977 162.451 72.8977C161.922 72.8977 161.448 72.7727 161.027 72.5227C160.61 72.2727 160.279 71.9091 160.034 71.4318C159.793 70.9545 159.672 70.375 159.672 69.6932C159.672 69.0227 159.79 68.4389 160.026 67.9418C160.262 67.4418 160.59 67.0554 161.01 66.7827C161.431 66.5071 161.917 66.3693 162.468 66.3693C162.894 66.3693 163.232 66.4403 163.482 66.5824C163.735 66.7216 163.928 66.8807 164.061 67.0597C164.198 67.2358 164.303 67.3807 164.377 67.4943H164.479V66.4545H165.451V73.1875C165.451 73.75 165.323 74.2074 165.067 74.5597C164.814 74.9148 164.473 75.1747 164.044 75.3395C163.618 75.5071 163.144 75.5909 162.621 75.5909ZM162.587 71.9943C162.99 71.9943 163.331 71.902 163.61 71.7173C163.888 71.5327 164.1 71.267 164.245 70.9205C164.39 70.5739 164.462 70.1591 164.462 69.6761C164.462 69.2045 164.391 68.7884 164.249 68.4276C164.107 68.0668 163.897 67.7841 163.618 67.5795C163.34 67.375 162.996 67.2727 162.587 67.2727C162.161 67.2727 161.806 67.3807 161.522 67.5966C161.24 67.8125 161.029 68.1023 160.887 68.4659C160.748 68.8295 160.678 69.233 160.678 69.6761C160.678 70.1307 160.749 70.5327 160.891 70.8821C161.036 71.2287 161.249 71.5014 161.53 71.7003C161.814 71.8963 162.167 71.9943 162.587 71.9943ZM171.161 73H170.053L173.257 64.2727H174.348L177.553 73H176.445L173.837 65.6534H173.769L171.161 73ZM171.57 69.5909H176.036V70.5284H171.57V69.5909ZM179.969 64.2727V73H178.912V64.2727H179.969Z" fill="#101828"/>
</svg>
