<svg width="27" height="10" viewBox="0 0 27 10" fill="none" xmlns="http://www.w3.org/2000/svg">
<g id="car-5">
<path id="Vector" fill-rule="evenodd" clip-rule="evenodd" d="M10.6571 1.79966C10.3887 1.81527 10.277 2.05716 10.1976 2.31182L10.0265 2.85803C9.7767 3.65748 11.2562 3.66741 11.2168 2.98642L11.1738 2.25578C11.1581 1.98906 10.9262 1.78406 10.6571 1.79966Z" fill="black"/>
<path id="Vector_2" fill-rule="evenodd" clip-rule="evenodd" d="M3.86886 8.76912C2.51323 8.76912 1.09032 7.86043 1.02948 7.82145L0.890625 7.73207V5.68909L0.935003 5.61676C1.00443 5.50181 1.18552 5.14148 1.18552 4.85418L1.26497 2.92898L5.01692 2.73958C6.63665 2.66439 7.66591 2.82683 8.7567 2.99708C9.37228 3.09426 10.0093 3.19428 10.7873 3.25599L16.874 3.25529C17.2283 3.25529 17.5826 3.20776 17.9577 3.1574C18.3356 3.10632 18.7271 3.05383 19.1215 3.05383C19.1795 3.05809 21.608 3.32551 23.5606 3.81994C25.6549 4.34983 26.3656 5.18191 26.4487 5.54795L26.6311 8.52159L26.3764 8.57973C25.8825 8.69323 25.4774 8.76771 24.3987 8.76771H23.2642V8.16478H24.3987C25.2261 8.16478 25.6162 8.12149 25.9848 8.04771L25.9727 7.88456L25.8481 5.63091C25.8087 5.54154 25.224 4.86341 23.4103 4.40445C21.5 3.92067 19.1122 3.65749 19.0886 3.65536C18.7679 3.65749 18.4136 3.70431 18.0386 3.75468C17.6607 3.80575 17.2691 3.85824 16.874 3.85824H10.763C9.93699 3.79369 9.28854 3.69154 8.66153 3.59365C7.60222 3.42695 6.60302 3.26876 5.04697 3.34254L1.85116 3.50356L1.7939 4.86552C1.79462 5.26843 1.59349 5.68202 1.49973 5.85225V7.39864C1.87836 7.61787 2.96916 8.18108 3.94115 8.16478H4.86231V8.76771H3.94903C3.92254 8.76842 3.89606 8.76912 3.86886 8.76912ZM8.05529 8.76842H20.0713V8.16478H8.05529V8.76842Z" fill="black"/>
<path id="Vector_3" fill-rule="evenodd" clip-rule="evenodd" d="M1.51193 4.56637C1.5012 4.86219 1.49118 5.17572 1.48975 5.36226H1.87339C2.36797 5.36226 3.02431 4.99129 3.04436 4.56637V4.1748H1.49833V4.56637H1.51193Z" fill="black"/>
<path id="Vector_4" fill-rule="evenodd" clip-rule="evenodd" d="M24.1289 5.28418L24.7101 6.31771C24.9005 6.20988 25.1811 6.13966 25.3972 6.13966H25.4116C25.7143 6.14321 26.0164 6.13966 26.3184 6.13966L26.307 6.09141C26.2826 5.99139 25.9942 5.50196 25.6957 5.28418C25.1739 5.28418 24.6514 5.28418 24.1289 5.28418Z" fill="black"/>
<path id="Vector_5" fill-rule="evenodd" clip-rule="evenodd" d="M8.4385 8.76757C8.33043 8.99176 8.18511 9.19461 8.00977 9.3684H8.0083C7.61178 9.76067 7.06354 10.0047 6.45944 10.0047C5.85391 10.0047 5.30563 9.76142 4.90839 9.3684C4.73377 9.19461 4.58774 8.99176 4.47967 8.76757H3.86914V7.69928C3.86914 6.99347 4.16045 6.35152 4.62999 5.88687C5.09882 5.42156 5.74655 5.13281 6.45873 5.13281H6.45944C7.17019 5.13281 7.81721 5.42156 8.28747 5.88687V5.88757H8.28818C8.75772 6.35363 9.04903 6.99488 9.04903 7.69928V8.76757H8.4385ZM21.6677 6.31179C20.821 6.31179 20.1353 6.99207 20.1353 7.83124C20.1353 8.67041 20.821 9.35069 21.6677 9.35069C22.5144 9.35069 23.2008 8.67041 23.2008 7.83124C23.2008 6.99207 22.5144 6.31179 21.6677 6.31179ZM6.45944 6.31179C5.61271 6.31179 4.9263 6.99207 4.9263 7.83124C4.9263 8.67041 5.61271 9.35069 6.45944 9.35069C7.30546 9.35069 7.99187 8.67041 7.99187 7.83124C7.99187 6.99207 7.30546 6.31179 6.45944 6.31179ZM21.6677 5.13281C22.3792 5.13281 23.0262 5.42156 23.4957 5.88687L23.4964 5.88757H23.4971C23.966 6.35363 24.258 6.99488 24.258 7.69928V8.76757H23.6475C23.5387 8.99176 23.3934 9.19461 23.2187 9.3684C22.8215 9.76142 22.2732 10.0047 21.6677 10.0047C21.0636 10.0047 20.5154 9.76067 20.1188 9.3684H20.1174C19.942 9.19461 19.7967 8.99176 19.6886 8.76757H19.0781V7.69928C19.0781 6.99488 19.3694 6.35363 19.8382 5.88757H19.839L19.8397 5.88687C20.3092 5.42156 20.9569 5.13281 21.6677 5.13281Z" fill="black"/>
<path id="Vector_6" fill-rule="evenodd" clip-rule="evenodd" d="M21.6672 7.28027C21.3609 7.28027 21.1118 7.52714 21.1118 7.83145C21.1118 8.13505 21.3609 8.38121 21.6672 8.38121C21.9743 8.38121 22.2227 8.13505 22.2227 7.83145C22.2227 7.52714 21.9743 7.28027 21.6672 7.28027Z" fill="black"/>
<path id="Vector_7" fill-rule="evenodd" clip-rule="evenodd" d="M10.3701 4.84654H11.7744V4.44434H10.3701V4.84654Z" fill="black"/>
<path id="Vector_8" fill-rule="evenodd" clip-rule="evenodd" d="M6.45923 7.28027C6.15216 7.28027 5.90381 7.52714 5.90381 7.83145C5.90381 8.13505 6.15216 8.38121 6.45923 8.38121C6.76559 8.38121 7.01466 8.13505 7.01466 7.83145C7.01466 7.52714 6.76559 7.28027 6.45923 7.28027Z" fill="black"/>
<path id="Vector_9" fill-rule="evenodd" clip-rule="evenodd" d="M9.896 6.9502V7.4652H18.422L9.896 6.9502Z" fill="black"/>
<path id="Vector_10" fill-rule="evenodd" clip-rule="evenodd" d="M25.6318 7.57115H26.3168V7.16895H25.6318V7.57115Z" fill="black"/>
<path id="Vector_11" fill-rule="evenodd" clip-rule="evenodd" d="M25.5234 7.03809H25.2227C25.1032 7.03809 25.0059 7.13454 25.0059 7.25301V7.48639C25.0059 7.60416 25.1032 7.70061 25.2227 7.70061H25.5234C25.6429 7.70061 25.7402 7.60416 25.7402 7.48639V7.25301C25.7402 7.13454 25.6429 7.03809 25.5234 7.03809Z" fill="black"/>
<path id="Vector_12" fill-rule="evenodd" clip-rule="evenodd" d="M1.3667 7.6709V8.52H3.59912V8.45334C2.66865 8.36822 1.73961 7.88516 1.3667 7.6709Z" fill="black"/>
<path id="Vector_13" fill-rule="evenodd" clip-rule="evenodd" d="M6.64681 1.65513C6.37841 1.67074 6.26605 1.91263 6.1866 2.16729L6.01623 2.7135C6.00194 2.75961 5.99332 2.80359 5.98975 2.84402C6.40632 2.8653 6.80785 2.89935 7.20081 2.93978C7.20652 2.90928 7.20795 2.87594 7.20652 2.84189L7.16356 2.11125C7.14784 1.84453 6.91521 1.63953 6.64681 1.65513Z" fill="black"/>
<path id="Vector_14" fill-rule="evenodd" clip-rule="evenodd" d="M19.2763 3.09757C19.2684 3.0926 16.3023 1.29792 15.0612 0.919118C14.9109 0.873721 14.7613 0.832578 14.6139 0.798531V0.799238C14.4557 0.762353 14.2932 0.728303 14.1293 0.699219L14.022 1.29082C15.5665 1.68168 16.1764 2.6379 17.522 3.44019C17.7346 3.56716 18.7588 3.49197 18.9671 3.61327L19.2763 3.09757Z" fill="black"/>
<path id="Vector_15" fill-rule="evenodd" clip-rule="evenodd" d="M16.3554 3.22603L16.3497 3.23171C16.18 3.39557 16.0898 3.59561 16.0813 3.82757C16.0784 3.91057 16.1063 3.98292 16.1643 4.04251C16.223 4.10209 16.2945 4.1326 16.3783 4.1326H17.0511C17.162 4.1326 17.2558 4.07726 17.3102 3.9815C17.3639 3.88645 17.3617 3.77791 17.3045 3.68428C17.1821 3.48424 16.981 3.2693 16.6603 3.15864C16.5515 3.12105 16.4377 3.14659 16.3554 3.22603Z" fill="black"/>
<path id="Vector_16" fill-rule="evenodd" clip-rule="evenodd" d="M16.9054 4.43529C16.8431 4.43529 16.7816 4.4062 16.7415 4.35229L16.365 3.84084C16.2991 3.75146 16.3192 3.62591 16.4094 3.55994C16.4995 3.49468 16.6262 3.51454 16.6928 3.60392L17.0693 4.11537C17.1358 4.20475 17.1158 4.33101 17.0249 4.39627C16.9891 4.42252 16.9469 4.43529 16.9054 4.43529Z" fill="black"/>
</g>
</svg>
