<svg width="24" height="24" viewBox="0 0 24 24" fill="none" xmlns="http://www.w3.org/2000/svg">
<path d="M18.101 18.6916V20.0737C18.101 20.4475 18.4095 20.7505 18.79 20.7505H21.5299C21.9104 20.7505 22.2189 20.4475 22.2189 20.0737V13.0019C22.2189 12.5013 22.0981 12.0209 21.8794 11.594L21.2556 10.7608L22.8143 9.92073C23.1655 9.73145 23.3415 9.11931 23.1986 8.58436L23.0387 7.9858C22.9387 7.61129 22.7042 7.36738 22.4442 7.36738H19.1956L18.587 5.65008C18.2957 4.82822 17.5183 4.27896 16.6463 4.27896H14.4979C14.2136 4.27896 14.4 4.51571 14.4 4.79999C14.4 5.08427 14.2136 5.30844 14.4979 5.30844H16.6463C17.0823 5.30844 17.471 5.58306 17.6167 5.994L18.2253 7.7113C18.371 8.12223 18.7597 8.39686 19.1956 8.39686H22.083L22.204 8.85005C22.223 8.92121 22.2235 9.00798 22.2073 9.07841L20.7672 9.85451C20.1503 10.187 20.0387 11.0253 20.5471 11.5076C20.9553 11.8949 21.1894 12.4336 21.1894 13.0019V19.7211H19.1305V18.6916C19.1305 18.123 18.6696 17.6621 18.101 17.6621H14.4979C14.2136 17.6621 13.9831 17.8926 13.9831 18.1768C13.9831 18.4611 8.71569 18.6916 8.99998 18.6916H18.101ZM5.74734 18.6916V20.0737C5.74734 20.4475 5.43887 20.7505 5.05838 20.7505H2.31841C1.93792 20.7505 1.62945 20.4475 1.62945 20.0737V13.0019C1.62945 12.5013 1.75022 12.0209 1.96894 11.5941L2.5927 10.7608L1.03402 9.92073C0.682895 9.73145 0.506858 9.11931 0.649739 8.58436L0.809588 7.9858C0.909618 7.61129 1.14413 7.36738 1.40418 7.36738H4.65271L5.26137 5.65008C5.55267 4.82822 6.33007 4.27896 7.20203 4.27896L14.7157 4.27895C15 4.27895 14.7157 4.60776 14.7157 4.89204C14.7157 5.17632 14.6843 5.30844 14.4 5.30844H7.20203C6.76605 5.30844 6.37735 5.58306 6.2317 5.994L5.62304 7.7113C5.47739 8.12223 5.08869 8.39686 4.65271 8.39686H1.76536L1.64435 8.85001C1.62533 8.92121 1.62484 9.00798 1.64104 9.07842L3.08111 9.85453C3.69801 10.187 3.80964 11.0253 3.30123 11.5076C2.89301 11.8949 2.65892 12.4336 2.65892 13.0019V19.7211H4.71787V18.6916C4.71787 18.123 5.17878 17.6621 5.74734 17.6621H14.4C14.6843 17.6621 14.6495 17.8926 14.6495 18.1768C14.6495 18.4611 9.28426 18.6916 8.99998 18.6916H5.74734Z" fill="#0078D4"/>
<path d="M8.99998 18.6916C8.71569 18.6916 13.9831 18.4611 13.9831 18.1768C13.9831 17.8926 14.2136 17.6621 14.4979 17.6621H18.101C18.6696 17.6621 19.1305 18.123 19.1305 18.6916V19.7211H21.1894V13.0019C21.1894 12.4336 20.9553 11.8949 20.5471 11.5076C20.0387 11.0253 20.1503 10.187 20.7672 9.85451L22.2073 9.07841C22.2235 9.00798 22.223 8.92121 22.204 8.85005L22.083 8.39686H19.1956C18.7597 8.39686 18.371 8.12223 18.2253 7.7113L17.6167 5.994C17.471 5.58306 17.0823 5.30844 16.6463 5.30844H14.4979C14.2136 5.30844 14.4 5.08427 14.4 4.79999C14.4 4.51571 14.2136 4.27896 14.4979 4.27896H16.6463C17.5183 4.27896 18.2957 4.82822 18.587 5.65008L19.1956 7.36738H22.4442C22.7042 7.36738 22.9387 7.61129 23.0387 7.9858L23.1986 8.58436C23.3415 9.11931 23.1655 9.73145 22.8143 9.92073L21.2556 10.7608L21.8794 11.594C22.0981 12.0209 22.2189 12.5013 22.2189 13.0019V20.0737C22.2189 20.4475 21.9104 20.7505 21.5299 20.7505H18.79C18.4095 20.7505 18.101 20.4475 18.101 20.0737V18.6916H8.99998ZM8.99998 18.6916C9.28426 18.6916 14.6495 18.4611 14.6495 18.1768C14.6495 17.8926 14.6843 17.6621 14.4 17.6621H5.74734C5.17878 17.6621 4.71787 18.123 4.71787 18.6916V19.7211H2.65892V13.0019C2.65892 12.4336 2.89301 11.8949 3.30123 11.5076C3.80964 11.0253 3.69801 10.187 3.08111 9.85453L1.64104 9.07842C1.62484 9.00798 1.62533 8.92121 1.64435 8.85001L1.76536 8.39686H4.65271C5.08869 8.39686 5.47739 8.12223 5.62304 7.7113L6.2317 5.994C6.37735 5.58306 6.76605 5.30844 7.20203 5.30844H14.4C14.6843 5.30844 14.7157 5.17632 14.7157 4.89204C14.7157 4.60776 15 4.27895 14.7157 4.27895L7.20203 4.27896C6.33007 4.27896 5.55267 4.82822 5.26137 5.65008L4.65271 7.36738H1.40418C1.14413 7.36738 0.909618 7.61129 0.809588 7.9858L0.649739 8.58436C0.506858 9.11931 0.682895 9.73145 1.03402 9.92073L2.5927 10.7608L1.96894 11.5941C1.75022 12.0209 1.62945 12.5013 1.62945 13.0019V20.0737C1.62945 20.4475 1.93792 20.7505 2.31841 20.7505H5.05838C5.43887 20.7505 5.74734 20.4475 5.74734 20.0737V18.6916H8.99998Z" stroke="#0078D4" stroke-width="0.6"/>
<path d="M16.8 4.8H6.59995L4.19995 7.8H1.19995V9L2.99995 10.2C2.59995 12.8 1.79995 18.12 1.79995 18.6C1.79995 19.08 2.19995 19.6 2.39995 19.8L4.19995 20.4L5.39995 18.6L15.6 18L18 18.6L19.1999 19.8L21 20.4V10.8C21 10.2 22.7999 8.4 22.1999 8.4C21.6 8.4 18.6 7.8 18.6 7.2C18.6 6.72 17.4 5.4 16.8 4.8Z" fill="#0078D4"/>
<path fill-rule="evenodd" clip-rule="evenodd" d="M7.17259 13.8215C7.45635 13.8565 7.69205 14.0748 7.69205 14.3595V14.7743C7.69205 14.8553 7.62473 14.9199 7.54362 14.9168L5.31156 14.8337C4.98547 14.8214 4.71802 14.5448 4.71802 14.2187V13.7596C4.71802 13.6373 4.81899 13.5308 4.94053 13.5456L7.17259 13.8215ZM16.6761 13.8215L18.9081 13.5456C19.0297 13.5308 19.1306 13.6373 19.1306 13.7596V14.2187C19.1306 14.5448 18.8632 14.8214 18.5371 14.8337L16.305 14.9168C16.2239 14.9199 16.1566 14.8553 16.1566 14.7743V14.3595C16.1566 14.0748 16.3923 13.8565 16.6761 13.8215Z" fill="white" stroke="white" stroke-width="0.6"/>
</svg>
