<svg width="22" height="22" viewBox="0 0 22 22" fill="none" xmlns="http://www.w3.org/2000/svg">
<g id="phone">
<path id="Icon" d="M20.1673 15.5098V18.2598C20.1683 18.5151 20.116 18.7678 20.0138 19.0017C19.9115 19.2356 19.7615 19.4456 19.5734 19.6181C19.3852 19.7907 19.1632 19.9221 18.9213 20.0039C18.6795 20.0857 18.4232 20.1161 18.169 20.0931C15.3482 19.7866 12.6387 18.8227 10.2581 17.2789C8.04331 15.8715 6.16552 13.9938 4.75813 11.7789C3.20894 9.38753 2.24485 6.66484 1.94396 3.83143C1.92106 3.57794 1.95118 3.32246 2.03242 3.08125C2.11366 2.84004 2.24424 2.6184 2.41583 2.43042C2.58743 2.24244 2.79628 2.09225 3.02911 1.98941C3.26193 1.88657 3.51361 1.83334 3.76813 1.8331H6.51813C6.96299 1.82872 7.39427 1.98625 7.73158 2.27633C8.06888 2.56642 8.2892 2.96926 8.35146 3.40976C8.46753 4.28982 8.68279 5.15393 8.99313 5.9856C9.11646 6.31369 9.14315 6.67027 9.07005 7.01307C8.99694 7.35587 8.82709 7.67053 8.58063 7.91976L7.41646 9.08393C8.72139 11.3788 10.6215 13.279 12.9165 14.5839L14.0806 13.4198C14.3299 13.1733 14.6445 13.0035 14.9873 12.9303C15.3301 12.8572 15.6867 12.8839 16.0148 13.0073C16.8465 13.3176 17.7106 13.5329 18.5906 13.6489C19.0359 13.7117 19.4426 13.936 19.7333 14.2791C20.024 14.6222 20.1785 15.0602 20.1673 15.5098Z" stroke="#344054" stroke-width="1.67" stroke-linecap="round" stroke-linejoin="round"/>
</g>
</svg>
