<svg width="27" height="11" viewBox="0 0 27 11" fill="none" xmlns="http://www.w3.org/2000/svg">
<g id="car-9">
<g id="Vector">
<path fill-rule="evenodd" clip-rule="evenodd" d="M19.8791 3.79264C19.6356 3.60524 19.3985 3.41418 19.1784 3.23673C19.0873 3.16331 18.999 3.09221 18.9145 3.02468C18.7847 2.92125 18.65 2.81126 18.5114 2.69808C18.246 2.48132 17.9667 2.25324 17.6826 2.03887L19.8791 3.79264ZM19.8791 3.79264C19.8535 3.80967 19.8288 3.82813 19.8052 3.84798L19.802 3.85072C19.6393 3.98879 19.5471 4.21585 19.4926 4.40597C19.4346 4.60787 19.4055 4.81942 19.3998 4.96764V4.96817C19.3991 4.98651 19.3992 5.0048 19.4002 5.023H19.2072C18.6638 5.023 17.8497 4.83584 17.1478 4.63786C16.802 4.54032 16.4919 4.44267 16.2682 4.36939C16.1849 4.34207 16.1136 4.31818 16.0571 4.29898V1.9707M19.8791 3.79264L16.0571 1.9707L19.8791 3.79264ZM16.0571 1.9707H17.4725C17.5552 1.9707 17.6206 1.99203 17.6826 2.03887L16.0571 1.9707Z" fill="#EBEBEB"/>
<path d="M19.8791 3.79264C19.6356 3.60524 19.3985 3.41418 19.1784 3.23673C19.0873 3.16331 18.999 3.09221 18.9145 3.02468M19.8791 3.79264L17.6826 2.03887M19.8791 3.79264C19.8535 3.80967 19.8288 3.82813 19.8052 3.84798L19.802 3.85072C19.6393 3.98879 19.5471 4.21585 19.4926 4.40597C19.4346 4.60787 19.4055 4.81942 19.3998 4.96764V4.96817C19.3991 4.98651 19.3992 5.0048 19.4002 5.023H19.2072C18.6638 5.023 17.8497 4.83584 17.1478 4.63786C16.802 4.54032 16.4919 4.44267 16.2682 4.36939C16.1849 4.34207 16.1136 4.31818 16.0571 4.29898V1.9707M19.8791 3.79264L16.0571 1.9707M18.9145 3.02468L19.0738 2.87185M18.9145 3.02468C18.7847 2.92125 18.65 2.81126 18.5114 2.69808C18.246 2.48132 17.9667 2.25324 17.6826 2.03887M17.6826 2.03887C17.6206 1.99203 17.5552 1.9707 17.4725 1.9707H16.0571M17.6826 2.03887L16.0571 1.9707" stroke="black" stroke-width="0.413793"/>
</g>
<g id="Vector_2">
<path fill-rule="evenodd" clip-rule="evenodd" d="M4.83798 4.19501L3.58865 3.56393C3.48431 3.51138 3.42773 3.42579 3.42773 3.32013V1.9707H14.2658C14.4429 1.9707 14.5878 2.0973 14.5883 2.25246C14.5883 2.25236 14.5883 2.25256 14.5883 2.25246V3.95116C14.5883 4.10586 14.4433 4.23277 14.2665 4.23277H4.99883C4.93797 4.23277 4.89075 4.22168 4.83798 4.19501Z" fill="#EBEBEB"/>
<path d="M14.5883 2.25246C14.5878 2.0973 14.4429 1.9707 14.2658 1.9707H3.42773V3.32013C3.42773 3.42579 3.48431 3.51138 3.58865 3.56393L4.83798 4.19501C4.89075 4.22168 4.93797 4.23277 4.99883 4.23277H14.2665C14.4433 4.23277 14.5883 4.10586 14.5883 3.95116V2.25246ZM14.5883 2.25246C14.5883 2.25256 14.5883 2.25236 14.5883 2.25246Z" stroke="black" stroke-width="0.413793"/>
</g>
<path id="Vector_3" fill-rule="evenodd" clip-rule="evenodd" d="M2.33287 9.31471C1.67212 9.31471 1.23599 9.09172 0.985086 8.90092C0.702 8.68542 0.587057 8.463 0.575235 8.43888L0.552246 8.34172V6.81933L0.592312 6.7607C0.59691 6.75437 0.653396 6.67161 0.709225 6.55438C0.783443 6.39805 0.822198 6.25554 0.822198 6.14233C0.828767 6.02738 0.835988 5.73197 0.846501 5.33427C0.876715 4.11013 0.928602 2.06185 1.03895 1.39691L1.11776 0.96875H18.0222L18.0997 1.0245C18.5214 1.32795 19.0173 1.72392 19.5421 2.14346C20.367 2.80266 21.2189 3.48312 21.7522 3.7722C22.1792 3.89174 25.6642 4.89578 25.8376 5.57046C26.057 6.25955 26.0734 6.38485 26.0511 7.09289C26.2823 7.23482 26.415 7.4584 26.4104 7.70324L26.3959 8.54233C26.39 8.89922 26.105 9.19173 25.7023 9.25322L25.5769 9.27048C25.3207 9.30035 24.6008 9.3136 24.1713 9.3136H23.2281V8.82507H24.1713C24.7125 8.82507 25.3214 8.80724 25.5014 8.78601L25.6058 8.77219C25.7404 8.75092 25.8357 8.65322 25.8376 8.53426L25.8521 7.69517C25.854 7.59172 25.789 7.50553 25.6794 7.46589L25.5014 7.4015L25.4882 7.22622C25.5145 6.42793 25.5164 6.38137 25.2964 5.69001C25.0922 5.36589 22.4412 4.44576 21.5604 4.23197L21.4908 4.20553C20.9128 3.90036 20.0242 3.19059 19.1657 2.50438C18.6784 2.1153 18.2159 1.74576 17.8212 1.45726L1.59133 1.4676C1.48623 2.10208 1.43303 4.21185 1.40479 5.3452C1.39494 5.75034 1.38706 6.05092 1.38049 6.15553C1.38115 6.32162 1.3286 6.52277 1.22483 6.74175C1.18279 6.83026 1.14075 6.90325 1.11054 6.9515V8.28197C1.14601 8.33427 1.2222 8.43371 1.35159 8.53198C1.62089 8.73656 1.97096 8.83368 2.39789 8.82507H3.9644V9.3136H2.40578C2.38082 9.31413 2.35651 9.31471 2.33287 9.31471ZM7.13287 9.3136H20.0603V8.82507H7.13287V9.3136Z" fill="black"/>
<path id="Vector_4" fill-rule="evenodd" clip-rule="evenodd" d="M20.1661 4.16941L20.1615 4.17401C20.0052 4.30562 19.9225 4.79527 19.9152 4.98264C19.9126 5.04988 19.9382 5.10905 19.9914 5.15676C20.0446 5.20563 20.111 5.22976 20.1878 5.22976H20.8052C21.4653 5.22976 20.6929 4.1901 20.4466 4.11539C20.3468 4.08493 20.2423 4.10562 20.1661 4.16941Z" fill="black"/>
<path id="Vector_5" fill-rule="evenodd" clip-rule="evenodd" d="M15.4946 5.54599H16.7826V5.2207H15.4946V5.54599Z" fill="black"/>
<path id="Vector_6" fill-rule="evenodd" clip-rule="evenodd" d="M13.4424 5.25399H14.7311V4.92871H13.4424V5.25399Z" fill="black"/>
<path id="Vector_7" fill-rule="evenodd" clip-rule="evenodd" d="M3.00244 5.47958H7.35976V5.1543H3.00244V5.47958Z" fill="black"/>
<path id="Vector_8" fill-rule="evenodd" clip-rule="evenodd" d="M25.7784 6.61636C25.1406 6.31462 23.9551 5.74566 23.7817 5.59396C23.7114 5.53247 23.6937 5.06807 23.7094 4.66406C24.6296 5.00199 25.5038 5.38706 25.5649 5.62441C25.7199 6.1112 25.7705 6.30258 25.7784 6.6152V6.61636Z" fill="black"/>
<path id="Vector_9" fill-rule="evenodd" clip-rule="evenodd" d="M1.10596 6.14275C1.60908 6.04559 2.13519 5.72432 2.15423 5.36631V2.44043H1.23075C1.17295 3.4594 1.14208 4.87145 1.12238 5.63639C1.15259 5.71398 1.16835 5.7772 1.16573 5.82206C1.16573 5.92952 1.14077 6.04042 1.10596 6.14275Z" fill="black"/>
<path id="Vector_10" fill-rule="evenodd" clip-rule="evenodd" d="M23.5822 9.31371C23.4876 9.60908 23.3077 9.87287 23.0673 10.0832H23.066C22.7021 10.4016 22.1989 10.5993 21.6439 10.5993C21.0883 10.5993 20.5851 10.4022 20.2213 10.0832C19.9802 9.87287 19.8003 9.60908 19.7063 9.31371H19.2676V8.77462C19.2676 8.20276 19.5349 7.68209 19.9651 7.30566C20.396 6.92923 20.9904 6.69531 21.6439 6.69531C22.2962 6.69531 22.8906 6.92923 23.3215 7.30566L23.3221 7.30624L23.3228 7.30682C23.753 7.68382 24.0203 8.20392 24.0203 8.77462V9.31371H23.5822ZM21.6439 7.76311C20.9655 7.76311 20.415 8.24472 20.415 8.83839C20.415 9.43268 20.9655 9.91425 21.6439 9.91425C22.3231 9.91425 22.8735 9.43268 22.8735 8.83839C22.8735 8.24472 22.3231 7.76311 21.6439 7.76311Z" fill="black"/>
<path id="Vector_11" fill-rule="evenodd" clip-rule="evenodd" d="M5.54871 6.69531C6.20095 6.69531 6.79534 6.92923 7.22621 7.30566L7.22687 7.30624L7.22753 7.30682C7.65773 7.68382 7.92507 8.20392 7.92507 8.77462V9.31371H7.48697C7.39239 9.60908 7.21245 9.87287 6.97136 10.0832H6.97074C6.60684 10.4016 6.10372 10.5993 5.54871 10.5993C4.99305 10.5993 4.48994 10.4022 4.12606 10.0832C3.88501 9.87287 3.70504 9.60908 3.61112 9.31371H3.17236V8.77462C3.17236 8.20276 3.43903 7.68209 3.8699 7.30566C4.30012 6.92923 4.89519 6.69531 5.54871 6.69531ZM5.54871 7.76311C4.86957 7.76311 4.31916 8.24472 4.31916 8.83839C4.31916 9.43268 4.86957 9.91425 5.54871 9.91425C6.22719 9.91425 6.77761 9.43268 6.77761 8.83839C6.77761 8.24472 6.22719 7.76311 5.54871 7.76311Z" fill="black"/>
<path id="Vector_12" fill-rule="evenodd" clip-rule="evenodd" d="M21.6439 8.39258C21.3628 8.39258 21.1343 8.59257 21.1343 8.83852C21.1343 9.0851 21.3628 9.28451 21.6439 9.28451C21.9257 9.28451 22.1536 9.0851 22.1536 8.83852C22.1536 8.59257 21.9257 8.39258 21.6439 8.39258Z" fill="black"/>
<path id="Vector_13" fill-rule="evenodd" clip-rule="evenodd" d="M5.54876 8.39258C5.267 8.39258 5.03906 8.59257 5.03906 8.83852C5.03906 9.0851 5.267 9.28451 5.54876 9.28451C5.83052 9.28451 6.05846 9.0851 6.05846 8.83852C6.05846 8.59257 5.83052 8.39258 5.54876 8.39258Z" fill="black"/>
</g>
</svg>
