<svg xmlns="http://www.w3.org/2000/svg" xmlns:xlink="http://www.w3.org/1999/xlink" width="600" zoomAndPan="magnify" viewBox="0 0 450 299.999988" height="400" preserveAspectRatio="xMidYMid meet" version="1.0"><script xmlns=""/><defs><g/><clipPath id="id1"><path d="M 135 84.152344 L 314 84.152344 L 314 144.902344 L 135 144.902344 Z M 135 84.152344 " clip-rule="nonzero"/></clipPath></defs><rect x="-45" width="540" fill="rgb(100%, 100%, 100%)" y="-29.999999" height="359.999986" fill-opacity="1"/><rect x="-45" width="540" fill="rgb(93.728638%, 93.728638%, 93.728638%)" y="-29.999999" height="359.999986" fill-opacity="1"/><rect x="-45" width="540" fill="rgb(100%, 100%, 100%)" y="-29.999999" height="359.999986" fill-opacity="1"/><rect x="-45" width="540" fill="rgb(93.728638%, 93.728638%, 93.728638%)" y="-29.999999" height="359.999986" fill-opacity="1"/><g clip-path="url(#id1)"><path fill="rgb(85.099792%, 85.099792%, 85.099792%)" d="M 174.644531 128.9375 C 173.910156 128.9375 173.3125 129.535156 173.3125 130.273438 C 173.3125 131.015625 173.910156 131.613281 174.644531 131.613281 C 175.382812 131.613281 175.980469 131.015625 175.980469 130.273438 C 175.980469 129.535156 175.382812 128.9375 174.644531 128.9375 Z M 174.644531 132.738281 C 174.332031 132.738281 174.082031 132.992188 174.082031 133.304688 C 174.082031 133.617188 174.332031 133.871094 174.644531 133.871094 C 174.957031 133.871094 175.210938 133.617188 175.210938 133.304688 C 175.210938 132.992188 174.957031 132.738281 174.644531 132.738281 Z M 176.144531 134.480469 L 176.144531 139.074219 C 177.484375 138.847656 178.722656 138.320312 179.785156 137.5625 L 176.546875 134.308594 C 176.417969 134.371094 176.28125 134.429688 176.144531 134.480469 Z M 178.667969 132.183594 L 181.90625 135.433594 C 182.660156 134.367188 183.1875 133.125 183.414062 131.78125 L 178.832031 131.78125 C 178.785156 131.917969 178.730469 132.050781 178.667969 132.183594 Z M 178.667969 128.367188 C 178.726562 128.5 178.785156 128.632812 178.832031 128.769531 L 183.414062 128.769531 C 183.1875 127.425781 182.660156 126.183594 181.90625 125.117188 Z M 172.746094 126.242188 C 172.875 126.179688 173.011719 126.121094 173.148438 126.074219 L 173.148438 121.476562 C 171.808594 121.703125 170.570312 122.230469 169.507812 122.988281 Z M 174.644531 115.65625 C 166.601562 115.65625 160.082031 122.203125 160.082031 130.277344 C 160.082031 138.347656 166.601562 144.894531 174.644531 144.894531 C 182.691406 144.894531 189.210938 138.347656 189.210938 130.277344 C 189.210938 122.203125 182.691406 115.65625 174.644531 115.65625 Z M 174.644531 140.714844 C 168.898438 140.714844 164.242188 136.042969 164.242188 130.273438 C 164.242188 124.507812 168.898438 119.832031 174.644531 119.832031 C 180.390625 119.832031 185.050781 124.507812 185.050781 130.273438 C 185.050781 136.042969 180.390625 140.714844 174.644531 140.714844 Z M 174.644531 127.8125 C 174.957031 127.8125 175.210938 127.558594 175.210938 127.246094 C 175.210938 126.933594 174.957031 126.679688 174.644531 126.679688 C 174.332031 126.679688 174.082031 126.933594 174.082031 127.246094 C 174.082031 127.558594 174.332031 127.8125 174.644531 127.8125 Z M 179.785156 122.988281 C 178.722656 122.230469 177.484375 121.703125 176.144531 121.472656 L 176.144531 126.070312 C 176.28125 126.121094 176.417969 126.175781 176.546875 126.238281 Z M 170.625 128.367188 L 167.386719 125.117188 C 166.632812 126.183594 166.105469 127.425781 165.878906 128.769531 L 170.457031 128.769531 C 170.507812 128.632812 170.5625 128.496094 170.625 128.367188 Z M 169.507812 137.5625 C 170.570312 138.320312 171.808594 138.847656 173.148438 139.074219 L 173.148438 134.476562 C 173.011719 134.429688 172.875 134.371094 172.746094 134.308594 Z M 170.457031 131.777344 L 165.878906 131.777344 C 166.105469 133.125 166.632812 134.367188 167.386719 135.433594 L 170.625 132.183594 C 170.5625 132.050781 170.507812 131.917969 170.457031 131.777344 Z M 172.195312 130.273438 C 172.195312 129.960938 171.941406 129.707031 171.628906 129.707031 C 171.316406 129.707031 171.0625 129.960938 171.0625 130.273438 C 171.0625 130.589844 171.316406 130.84375 171.628906 130.84375 C 171.941406 130.84375 172.195312 130.589844 172.195312 130.273438 Z M 177.097656 130.273438 C 177.097656 130.589844 177.351562 130.84375 177.664062 130.84375 C 177.976562 130.84375 178.230469 130.589844 178.230469 130.273438 C 178.230469 129.960938 177.976562 129.707031 177.664062 129.707031 C 177.351562 129.707031 177.097656 129.960938 177.097656 130.273438 Z M 287.523438 128.9375 C 286.785156 128.9375 286.1875 129.535156 286.1875 130.273438 C 286.1875 131.015625 286.785156 131.613281 287.523438 131.613281 C 288.257812 131.613281 288.855469 131.015625 288.855469 130.273438 C 288.855469 129.535156 288.257812 128.9375 287.523438 128.9375 Z M 285.621094 126.238281 C 285.75 126.179688 285.886719 126.121094 286.023438 126.070312 L 286.023438 121.472656 C 284.683594 121.703125 283.445312 122.230469 282.382812 122.988281 Z M 287.523438 132.734375 C 287.210938 132.734375 286.957031 132.988281 286.957031 133.304688 C 286.957031 133.617188 287.210938 133.871094 287.523438 133.871094 C 287.835938 133.871094 288.085938 133.617188 288.085938 133.304688 C 288.085938 132.988281 287.832031 132.734375 287.523438 132.734375 Z M 289.019531 134.476562 L 289.019531 139.074219 C 290.359375 138.847656 291.597656 138.320312 292.660156 137.5625 L 289.421875 134.308594 C 289.292969 134.371094 289.15625 134.429688 289.019531 134.476562 Z M 291.707031 131.777344 C 291.660156 131.917969 291.605469 132.050781 291.542969 132.183594 L 294.78125 135.433594 C 295.535156 134.367188 296.0625 133.125 296.289062 131.777344 Z M 312.859375 113.273438 C 310.882812 110.234375 305.820312 109.175781 301.964844 107.914062 C 275.042969 101.386719 266.089844 103.511719 261.597656 102.875 C 260.691406 102.632812 259.882812 101.835938 259.140625 101.375 C 257.515625 100.359375 255.828125 99.464844 254.226562 98.480469 C 251.582031 96.851562 239.371094 90.152344 236.070312 88.941406 C 228.816406 86.277344 217.351562 84.144531 189.71875 86.367188 C 188.597656 86.058594 187.921875 85.148438 186.726562 84.867188 C 185.550781 84.585938 184.464844 85.207031 183.628906 85.402344 C 183.644531 86.3125 183.566406 87.050781 183.417969 87.761719 C 178.015625 90.046875 172.550781 91.800781 167.183594 94.085938 C 164.941406 95.039062 162.632812 95.972656 160.347656 96.980469 C 158.929688 97.605469 157.570312 98.496094 155.96875 99.015625 C 154.230469 99.578125 152.328125 99.324219 150.414062 99.765625 C 146.933594 100.570312 143.15625 100.675781 139.308594 100.730469 C 138.867188 101.488281 138.101562 102.25 137.921875 103.195312 C 138.585938 103.402344 138.808594 103.863281 138.773438 104.804688 C 137.597656 106.554688 137.914062 109.050781 137.921875 111.878906 C 135.410156 113.167969 135.027344 117.894531 135.675781 121.632812 L 135.464844 122.597656 C 135.597656 123.65625 135.941406 124.773438 135.996094 125.921875 C 136.941406 126.554688 138.007812 127.574219 138.667969 128.496094 C 138.988281 128.941406 139.144531 129.714844 139.734375 129.886719 C 142.886719 132.199219 158.851562 132.675781 158.851562 132.675781 L 159.691406 132.722656 C 159.5625 131.925781 159.496094 131.109375 159.496094 130.273438 C 159.496094 121.878906 166.277344 115.070312 174.644531 115.070312 C 183.007812 115.070312 189.792969 121.878906 189.792969 130.273438 C 189.792969 131.683594 189.597656 133.976562 189.242188 135.269531 L 273.160156 135.121094 C 272.648438 133.597656 272.371094 131.96875 272.371094 130.277344 C 272.371094 121.878906 279.152344 115.074219 287.519531 115.074219 C 295.886719 115.074219 302.667969 121.878906 302.667969 130.277344 C 302.667969 131.746094 302.457031 133.167969 302.070312 134.515625 L 302.925781 134.496094 C 302.925781 134.496094 309.539062 134.175781 311.148438 133.425781 C 312.761719 132.675781 313.394531 130.53125 313.394531 130.53125 L 312.964844 126.027344 C 312.964844 126.027344 314.953125 116.488281 312.859375 113.273438 Z M 178.824219 102.234375 C 173.804688 98.886719 176.464844 94.976562 176.328125 94.988281 C 176.25 95.0625 176.191406 95.117188 176.15625 95.15625 C 176.261719 95.042969 176.3125 94.992188 176.328125 94.988281 C 177.621094 93.832031 185.003906 88.660156 211.183594 88.617188 C 212.003906 93.226562 212.824219 99.28125 213.640625 103.890625 C 203.105469 103.570312 182.371094 103.75 178.824219 102.234375 Z M 246.324219 103.945312 C 244.023438 103.945312 221.117188 103.941406 221.117188 103.941406 C 221.117188 103.941406 217.421875 94.15625 216.097656 88.726562 C 216.25 88.742188 220.796875 88.941406 220.796875 88.941406 C 220.796875 88.941406 229.792969 89.96875 235.429688 91.835938 C 239.859375 93.300781 248.613281 99.203125 248.777344 99.550781 C 246.144531 99.6875 245.523438 101.769531 246.324219 103.945312 Z M 287.519531 115.65625 C 279.476562 115.65625 272.957031 122.203125 272.957031 130.273438 C 272.957031 138.347656 279.476562 144.894531 287.519531 144.894531 C 295.5625 144.894531 302.085938 138.347656 302.085938 130.273438 C 302.085938 122.203125 295.5625 115.65625 287.519531 115.65625 Z M 287.519531 140.714844 C 281.773438 140.714844 277.117188 136.042969 277.117188 130.273438 C 277.117188 124.507812 281.773438 119.832031 287.519531 119.832031 C 293.265625 119.832031 297.921875 124.507812 297.921875 130.273438 C 297.921875 136.042969 293.265625 140.714844 287.519531 140.714844 Z M 283.5 128.367188 L 280.261719 125.117188 C 279.503906 126.183594 278.980469 127.425781 278.75 128.769531 L 283.332031 128.769531 C 283.382812 128.632812 283.4375 128.496094 283.5 128.367188 Z M 285.066406 130.273438 C 285.066406 129.960938 284.8125 129.707031 284.5 129.707031 C 284.191406 129.707031 283.9375 129.960938 283.9375 130.273438 C 283.9375 130.589844 284.191406 130.84375 284.5 130.84375 C 284.816406 130.84375 285.066406 130.589844 285.066406 130.273438 Z M 287.519531 127.8125 C 287.832031 127.8125 288.085938 127.558594 288.085938 127.246094 C 288.085938 126.933594 287.832031 126.679688 287.519531 126.679688 C 287.207031 126.679688 286.953125 126.933594 286.953125 127.246094 C 286.953125 127.558594 287.207031 127.8125 287.519531 127.8125 Z M 292.660156 122.988281 C 291.59375 122.230469 290.359375 121.703125 289.019531 121.472656 L 289.019531 126.070312 C 289.15625 126.121094 289.289062 126.175781 289.421875 126.238281 Z M 289.972656 130.273438 C 289.972656 130.589844 290.226562 130.84375 290.539062 130.84375 C 290.851562 130.84375 291.101562 130.589844 291.101562 130.273438 C 291.101562 129.960938 290.851562 129.707031 290.539062 129.707031 C 290.226562 129.707031 289.972656 129.960938 289.972656 130.273438 Z M 282.378906 137.5625 C 283.445312 138.320312 284.679688 138.847656 286.019531 139.074219 L 286.019531 134.476562 C 285.882812 134.429688 285.75 134.371094 285.617188 134.308594 Z M 283.332031 131.777344 L 278.75 131.777344 C 278.980469 133.125 279.503906 134.363281 280.261719 135.433594 L 283.5 132.183594 C 283.4375 132.050781 283.382812 131.917969 283.332031 131.777344 Z M 291.707031 128.769531 L 296.289062 128.769531 C 296.0625 127.425781 295.535156 126.183594 294.777344 125.117188 L 291.539062 128.367188 C 291.601562 128.496094 291.660156 128.632812 291.707031 128.769531 Z M 291.707031 128.769531 " fill-opacity="1" fill-rule="nonzero"/></g><g fill="rgb(85.099792%, 85.099792%, 85.099792%)" fill-opacity="1"><g transform="translate(76.018186, 203.347822)"><g><path d="M 4.59375 -36.453125 L 15.09375 -36.453125 L 28.34375 -11.453125 L 28.34375 -36.453125 L 37.25 -36.453125 L 37.25 0 L 26.765625 0 L 13.5 -25 L 13.5 0 L 4.59375 0 Z M 4.59375 -36.453125 "/></g></g></g><g fill="rgb(85.099792%, 85.099792%, 85.099792%)" fill-opacity="1"><g transform="translate(119.855707, 203.347822)"><g><path d="M 21.234375 -30.296875 C 18.367188 -30.296875 16.144531 -29.238281 14.5625 -27.125 C 12.988281 -25.007812 12.203125 -22.03125 12.203125 -18.1875 C 12.203125 -14.363281 12.988281 -11.394531 14.5625 -9.28125 C 16.144531 -7.164062 18.367188 -6.109375 21.234375 -6.109375 C 24.117188 -6.109375 26.347656 -7.164062 27.921875 -9.28125 C 29.503906 -11.394531 30.296875 -14.363281 30.296875 -18.1875 C 30.296875 -22.03125 29.503906 -25.007812 27.921875 -27.125 C 26.347656 -29.238281 24.117188 -30.296875 21.234375 -30.296875 Z M 21.234375 -37.109375 C 27.097656 -37.109375 31.6875 -35.429688 35 -32.078125 C 38.320312 -28.722656 39.984375 -24.09375 39.984375 -18.1875 C 39.984375 -12.289062 38.320312 -7.664062 35 -4.3125 C 31.6875 -0.96875 27.097656 0.703125 21.234375 0.703125 C 15.390625 0.703125 10.800781 -0.96875 7.46875 -4.3125 C 4.144531 -7.664062 2.484375 -12.289062 2.484375 -18.1875 C 2.484375 -24.09375 4.144531 -28.722656 7.46875 -32.078125 C 10.800781 -35.429688 15.390625 -37.109375 21.234375 -37.109375 Z M 21.234375 -37.109375 "/></g></g></g><g fill="rgb(85.099792%, 85.099792%, 85.099792%)" fill-opacity="1"><g transform="translate(164.352285, 203.347822)"><g/></g></g><g fill="rgb(85.099792%, 85.099792%, 85.099792%)" fill-opacity="1"><g transform="translate(183.756111, 203.347822)"><g><path d="M 4.59375 -36.453125 L 13.984375 -36.453125 L 13.984375 0 L 4.59375 0 Z M 4.59375 -36.453125 "/></g></g></g><g fill="rgb(85.099792%, 85.099792%, 85.099792%)" fill-opacity="1"><g transform="translate(204.355988, 203.347822)"><g><path d="M 4.59375 -36.453125 L 16.546875 -36.453125 L 24.859375 -16.9375 L 33.203125 -36.453125 L 45.140625 -36.453125 L 45.140625 0 L 36.25 0 L 36.25 -26.65625 L 27.859375 -7 L 21.90625 -7 L 13.5 -26.65625 L 13.5 0 L 4.59375 0 Z M 4.59375 -36.453125 "/></g></g></g><g fill="rgb(85.099792%, 85.099792%, 85.099792%)" fill-opacity="1"><g transform="translate(256.10212, 203.347822)"><g><path d="M 26.703125 -6.640625 L 12.015625 -6.640625 L 9.6875 0 L 0.25 0 L 13.75 -36.453125 L 24.953125 -36.453125 L 38.453125 0 L 29 0 Z M 14.359375 -13.40625 L 24.34375 -13.40625 L 19.359375 -27.90625 Z M 14.359375 -13.40625 "/></g></g></g><g fill="rgb(85.099792%, 85.099792%, 85.099792%)" fill-opacity="1"><g transform="translate(296.790858, 203.347822)"><g><path d="M 37.359375 -2.703125 C 35.015625 -1.566406 32.578125 -0.710938 30.046875 -0.140625 C 27.523438 0.421875 24.921875 0.703125 22.234375 0.703125 C 16.171875 0.703125 11.363281 -0.988281 7.8125 -4.375 C 4.257812 -7.769531 2.484375 -12.375 2.484375 -18.1875 C 2.484375 -24.0625 4.289062 -28.679688 7.90625 -32.046875 C 11.519531 -35.421875 16.46875 -37.109375 22.75 -37.109375 C 25.175781 -37.109375 27.5 -36.878906 29.71875 -36.421875 C 31.945312 -35.972656 34.046875 -35.300781 36.015625 -34.40625 L 36.015625 -26.859375 C 33.972656 -28.015625 31.945312 -28.875 29.9375 -29.4375 C 27.925781 -30.007812 25.914062 -30.296875 23.90625 -30.296875 C 20.15625 -30.296875 17.265625 -29.25 15.234375 -27.15625 C 13.210938 -25.070312 12.203125 -22.082031 12.203125 -18.1875 C 12.203125 -14.332031 13.175781 -11.351562 15.125 -9.25 C 17.082031 -7.15625 19.863281 -6.109375 23.46875 -6.109375 C 24.4375 -6.109375 25.335938 -6.164062 26.171875 -6.28125 C 27.015625 -6.40625 27.769531 -6.597656 28.4375 -6.859375 L 28.4375 -13.9375 L 22.703125 -13.9375 L 22.703125 -20.234375 L 37.359375 -20.234375 Z M 37.359375 -2.703125 "/></g></g></g><g fill="rgb(85.099792%, 85.099792%, 85.099792%)" fill-opacity="1"><g transform="translate(339.822887, 203.347822)"><g><path d="M 4.59375 -36.453125 L 29.953125 -36.453125 L 29.953125 -29.34375 L 13.984375 -29.34375 L 13.984375 -22.5625 L 29 -22.5625 L 29 -15.453125 L 13.984375 -15.453125 L 13.984375 -7.109375 L 30.5 -7.109375 L 30.5 0 L 4.59375 0 Z M 4.59375 -36.453125 "/></g></g></g></svg>