<svg width="22" height="22" viewBox="0 0 22 22" fill="none" xmlns="http://www.w3.org/2000/svg">
<g id="edit">
<path id="Icon" d="M10.0835 3.6672H3.66683C3.1806 3.6672 2.71428 3.86035 2.37047 4.20417C2.02665 4.54799 1.8335 5.0143 1.8335 5.50053V18.3339C1.8335 18.8201 2.02665 19.2864 2.37047 19.6302C2.71428 19.974 3.1806 20.1672 3.66683 20.1672H16.5002C16.9864 20.1672 17.4527 19.974 17.7965 19.6302C18.1403 19.2864 18.3335 18.8201 18.3335 18.3339V11.9172M16.9585 2.2922C17.3232 1.92753 17.8178 1.72266 18.3335 1.72266C18.8492 1.72266 19.3438 1.92753 19.7085 2.2922C20.0732 2.65687 20.278 3.15147 20.278 3.6672C20.278 4.18293 20.0732 4.67753 19.7085 5.0422L11.0002 13.7505L7.3335 14.6672L8.25016 11.0005L16.9585 2.2922Z" stroke="#344054" stroke-width="1.66667" stroke-linecap="round" stroke-linejoin="round"/>
</g>
</svg>
