<svg width="18" height="18" viewBox="0 0 18 18" fill="none" xmlns="http://www.w3.org/2000/svg">
<g id="Group 33807">
<circle id="Ellipse 5" cx="9" cy="9" r="9" fill="url(#paint0_linear_857_147498)"/>
<path id="thumbs-up" d="M6.05667 8.52907C6.1646 8.52907 6.27252 8.58303 6.36245 8.65498C6.4344 8.74491 6.48836 8.85283 6.48836 8.96076V13.2776C6.48836 13.4035 6.4344 13.5114 6.36245 13.5834C6.27252 13.6733 6.1646 13.7093 6.05667 13.7093H4.61772C4.49181 13.7093 4.38389 13.6733 4.31194 13.5834C4.22201 13.5114 4.18604 13.4035 4.18604 13.2776V8.96076C4.18604 8.85283 4.22201 8.74491 4.31194 8.65498C4.38389 8.58303 4.49181 8.52907 4.61772 8.52907H6.05667ZM5.3372 12.9898C5.44512 12.9898 5.55304 12.9539 5.64298 12.8639C5.71492 12.792 5.76888 12.684 5.76888 12.5581C5.76888 12.4502 5.71492 12.3423 5.64298 12.2524C5.55304 12.1804 5.44512 12.1265 5.3372 12.1265C5.21129 12.1265 5.10337 12.1804 5.03142 12.2524C4.94149 12.3423 4.90551 12.4502 4.90551 12.5581C4.90551 12.684 4.94149 12.792 5.03142 12.8639C5.10337 12.9539 5.21129 12.9898 5.3372 12.9898ZM11.093 5.95694C11.093 5.38136 10.9311 4.98565 10.6074 4.73383C10.3915 4.58993 10.1217 4.5 9.79795 4.5C9.63607 4.5 9.49218 4.6439 9.38425 4.89571C9.31231 5.03961 9.25835 5.25545 9.1864 5.52525V5.54324C9.11445 5.81305 9.06049 6.0109 9.02452 6.11882C8.95257 6.33467 8.84465 6.49655 8.73673 6.60447C8.53887 6.78434 8.30504 7.09012 8.01725 7.50382C7.65751 8.00745 7.36972 8.38517 7.13589 8.63699C7.08193 8.67297 7.06394 8.72693 7.06394 8.78089V12.6301C7.06394 12.702 7.08193 12.756 7.1179 12.792C7.15388 12.8279 7.20784 12.8459 7.27979 12.8459C7.47764 12.8459 7.78342 12.9539 8.19712 13.1337C8.61082 13.3136 8.93458 13.4395 9.1864 13.5114C9.58211 13.6553 9.97782 13.7093 10.3735 13.7093H10.4275C10.9491 13.7093 11.3448 13.6913 11.5966 13.6374C12.0103 13.5654 12.2981 13.4215 12.46 13.1877C12.6039 12.9718 12.6579 12.702 12.5859 12.3783C12.7298 12.2164 12.8198 12.0005 12.8917 11.7487C12.9457 11.4969 12.9457 11.2631 12.8737 11.0293C13.0176 10.8314 13.1075 10.5976 13.1435 10.3278C13.1615 10.0759 13.1255 9.82413 13.0356 9.5903H13.0536C13.1435 9.48238 13.2155 9.35647 13.2874 9.19459C13.3594 9.05069 13.3953 8.88881 13.3953 8.70894C13.3953 8.43914 13.2874 8.20531 13.0716 7.98946C12.8557 7.77362 12.6039 7.6657 12.3161 7.6657H10.4994C10.5174 7.55778 10.5894 7.35992 10.7333 7.1081C10.8412 6.89226 10.9311 6.73038 10.9851 6.60447C11.057 6.38863 11.093 6.17278 11.093 5.95694Z" fill="white"/>
</g>
<defs>
<linearGradient id="paint0_linear_857_147498" x1="9" y1="0" x2="9" y2="18" gradientUnits="userSpaceOnUse">
<stop stop-color="#48ADF8"/>
<stop offset="1" stop-color="#1E5FED"/>
</linearGradient>
</defs>
</svg>
