<svg width="26" height="11" viewBox="0 0 26 11" fill="none" xmlns="http://www.w3.org/2000/svg">
<g id="car-4">
<path id="Vector" fill-rule="evenodd" clip-rule="evenodd" d="M12.6883 1.86523C13.947 1.98382 14.9105 2.4024 15.8816 2.96908C15.7236 3.19272 15.637 3.4547 15.6266 3.74107L15.6266 3.74247C15.6257 3.77315 15.6265 3.80362 15.629 3.83377C15.4554 3.8348 15.2691 3.83605 15.072 3.83737C13.7115 3.84648 11.8328 3.85907 10.0217 3.8272C8.91549 3.80773 7.83688 3.7717 6.91893 3.70836C6.19122 3.65815 5.57377 3.5913 5.12549 3.50448C5.95945 2.53973 6.68881 1.86602 7.71715 1.86602C9.0768 1.86602 11.3247 1.86602 12.6883 1.86523Z" fill="#EBEBEB" stroke="black" stroke-width="0.413793"/>
<path id="Vector_2" fill-rule="evenodd" clip-rule="evenodd" d="M2.38515 9.14701C1.21457 9.14701 0.723802 8.37752 0.62889 7.96133L0.619629 6.34356L0.722258 6.24248C0.89125 6.07696 1.12969 5.75072 1.12969 5.54383L1.17907 4.56583C1.19451 4.25549 1.33726 3.98255 1.5811 3.79873L4.21395 1.81729L3.8721 1.26663L4.27643 1.13215C5.26877 0.800318 5.9131 0.64435 7.52659 0.64435L12.7267 0.643555C13.5192 0.714377 14.189 0.839309 14.7469 1.01676C15.885 1.37724 18.4438 2.96159 18.8674 3.22658C19.2039 3.28149 20.7772 3.54807 22.4918 4.00005C24.5753 4.54911 25.2836 5.4165 25.367 5.79926L25.5498 8.88678L25.2751 8.95203C24.7852 9.06901 24.3839 9.14623 23.3136 9.14623H21.971V8.46901H23.3136C24.1115 8.46901 24.4973 8.42685 24.8531 8.35443L24.843 8.21201L24.7196 5.89158C24.6763 5.80005 24.1131 5.12523 22.3298 4.65657C20.4354 4.15682 18.7208 3.88785 18.7038 3.88467L18.5819 3.83931C18.5534 3.82101 15.6921 2.02419 14.5539 1.66292C14.04 1.49979 13.415 1.3844 12.6974 1.31836L7.52659 1.32074C6.22945 1.32074 5.61987 1.42101 4.88525 1.64462L5.099 1.98838L1.96846 4.34541C1.88358 4.40907 1.8396 4.49263 1.8342 4.60083L1.78558 5.56133C1.78558 5.99821 1.45378 6.4279 1.2763 6.62685V7.83401C1.32568 7.98202 1.56567 8.48014 2.45228 8.46901H3.32038V9.14623H2.46154C2.4353 9.14701 2.41061 9.14701 2.38515 9.14701ZM6.43859 9.14623H18.852V8.46901H6.43859V9.14623Z" fill="black"/>
<path id="Vector_3" fill-rule="evenodd" clip-rule="evenodd" d="M1.51065 4.53391L1.50602 4.58324L1.46436 5.40846H2.36872C2.36872 5.40846 2.9598 4.73684 2.93588 4.32622C2.93588 4.32622 2.29156 4.31746 1.51065 4.53391Z" fill="black"/>
<path id="Vector_4" fill-rule="evenodd" clip-rule="evenodd" d="M4.88016 5.43359C5.57542 5.43359 6.20739 5.72722 6.66498 6.19911L6.66418 6.1999C7.12253 6.67257 7.4065 7.3243 7.4065 8.0397V9.14581H6.39642C6.56696 8.86332 6.66574 8.52988 6.66574 8.17257C6.66574 7.15481 5.86633 6.33041 4.8794 6.33041C3.89322 6.33041 3.09303 7.15481 3.09303 8.17257C3.09303 8.52988 3.1918 8.86332 3.36234 9.14581H2.35303V8.0397C2.35303 7.32273 2.63699 6.671 3.09458 6.19911C3.55216 5.72722 4.18415 5.43359 4.88016 5.43359ZM20.4125 5.43359C21.1078 5.43359 21.7398 5.72722 22.1974 6.19911L22.1966 6.1999C22.655 6.67257 22.9389 7.3243 22.9389 8.0397V9.14581H21.9296C22.1001 8.86332 22.1989 8.52988 22.1989 8.17257C22.1989 7.15481 21.3987 6.33041 20.4125 6.33041C19.4256 6.33041 18.6262 7.15481 18.6262 8.17257C18.6262 8.52988 18.725 8.86332 18.8955 9.14581H17.8854V8.0397C17.8854 7.32273 18.1694 6.671 18.627 6.19911C19.0846 5.72722 19.7165 5.43359 20.4125 5.43359Z" fill="black"/>
<path id="Vector_5" fill-rule="evenodd" clip-rule="evenodd" d="M9.74268 5.26077H10.6941V4.80957H9.74268V5.26077Z" fill="black"/>
<path id="Vector_6" fill-rule="evenodd" clip-rule="evenodd" d="M16.341 3.08202L16.3348 3.08839C16.1519 3.27221 16.0547 3.49661 16.0462 3.75682C16.0424 3.84992 16.0732 3.93109 16.1357 3.99793C16.1983 4.06478 16.2762 4.099 16.3665 4.099H17.091C17.2106 4.099 17.3125 4.03693 17.3704 3.93029C17.429 3.82287 17.4267 3.70112 17.365 3.59608C17.2322 3.37247 17.0154 3.13056 16.6697 3.00642C16.5524 2.96425 16.4297 2.9929 16.341 3.08202Z" fill="black"/>
<path id="Vector_7" fill-rule="evenodd" clip-rule="evenodd" d="M16.9345 4.43807C16.8674 4.43807 16.801 4.40624 16.7585 4.34497L16.3519 3.77123C16.2809 3.67096 16.3025 3.52932 16.3997 3.45611C16.497 3.38369 16.6335 3.40438 16.7053 3.50544L17.112 4.07919C17.1829 4.18025 17.1614 4.3211 17.0633 4.3943C17.0248 4.42375 16.98 4.43807 16.9345 4.43807Z" fill="black"/>
<path id="Vector_8" fill-rule="evenodd" clip-rule="evenodd" d="M4.87663 1.63281L2.44287 3.57128H3.91516L5.14824 1.94554L4.87663 1.63281Z" fill="black"/>
<path id="Vector_9" fill-rule="evenodd" clip-rule="evenodd" d="M23.0303 5.3252L23.6561 6.48464C23.8621 6.36369 24.1646 6.28569 24.3976 6.28569H24.413C24.6198 6.28809 24.8266 6.28726 25.0327 6.28648L24.9987 5.87984C24.8768 5.67373 24.7155 5.48993 24.5249 5.3252H23.0303Z" fill="black"/>
<path id="Vector_10" fill-rule="evenodd" clip-rule="evenodd" d="M24.4316 7.89061H25.1709V7.43945H24.4316V7.89061Z" fill="black"/>
<path id="Vector_11" fill-rule="evenodd" clip-rule="evenodd" d="M24.3143 7.29297H23.9902C23.8613 7.29297 23.7563 7.40118 23.7563 7.53409V7.79589C23.7563 7.92876 23.8613 8.03622 23.9902 8.03622H24.3143C24.4431 8.03622 24.5481 7.92876 24.5481 7.79589V7.53409C24.5481 7.40118 24.4431 7.29297 24.3143 7.29297Z" fill="black"/>
<path id="Vector_12" fill-rule="evenodd" clip-rule="evenodd" d="M20.4124 6.63713C20.0011 6.63713 19.6284 6.80902 19.3599 7.08672C19.0906 7.36446 18.9232 7.748 18.9232 8.17214C18.9232 8.59628 19.0906 8.97982 19.3599 9.25756C19.6284 9.53526 20.0011 9.70715 20.4124 9.70715C20.8229 9.70715 21.1956 9.53526 21.4649 9.25756C21.7342 8.97982 21.9009 8.59628 21.9009 8.17214C21.9009 7.748 21.7342 7.36446 21.4649 7.08672C21.1956 6.80902 20.8229 6.63713 20.4124 6.63713ZM18.8954 6.60767C19.2835 6.20741 19.8198 5.95996 20.4124 5.95996C21.0043 5.95996 21.5405 6.20741 21.9287 6.60767C22.3168 7.00793 22.5568 7.56101 22.5568 8.17214C22.5568 8.78327 22.3168 9.33635 21.9287 9.73661C21.5405 10.1361 21.0043 10.3844 20.4124 10.3844C19.8198 10.3844 19.2835 10.1361 18.8954 9.73661C18.5072 9.33635 18.2672 8.78327 18.2672 8.17214C18.2672 7.56101 18.5072 7.00793 18.8954 6.60767ZM4.88004 6.63713C4.46875 6.63713 4.09603 6.80902 3.82674 7.08672C3.55821 7.36446 3.39076 7.748 3.39076 8.17214C3.39076 8.59628 3.55821 8.97982 3.82674 9.25756C4.09603 9.53526 4.46875 9.70715 4.88004 9.70715C5.29056 9.70715 5.66325 9.53526 5.93257 9.25756C6.20109 8.97982 6.36853 8.59628 6.36853 8.17214C6.36853 7.748 6.20109 7.36446 5.93257 7.08672C5.66325 6.80902 5.29056 6.63713 4.88004 6.63713ZM3.36298 6.60767C3.75112 6.20741 4.28743 5.95996 4.88004 5.95996C5.47189 5.95996 6.00816 6.20741 6.3963 6.60767C6.78443 7.00793 7.02442 7.56101 7.02442 8.17214C7.02442 8.78327 6.78443 9.33635 6.3963 9.73661C6.00816 10.1361 5.47189 10.3844 4.88004 10.3844C4.28743 10.3844 3.75112 10.1361 3.36298 9.73661C2.97485 9.33635 2.73486 8.78327 2.73486 8.17214C2.73486 7.56101 2.97485 7.00793 3.36298 6.60767Z" fill="black"/>
<path id="Vector_13" fill-rule="evenodd" clip-rule="evenodd" d="M4.87997 7.62109C4.5844 7.62109 4.34521 7.8678 4.34521 8.17177C4.34521 8.47653 4.5844 8.72323 4.87997 8.72323C4.92856 8.72323 4.97643 8.71607 5.02117 8.70333C5.24804 8.63969 5.41395 8.42563 5.41395 8.17177C5.41395 7.8678 5.17473 7.62109 4.87997 7.62109Z" fill="black"/>
<path id="Vector_14" fill-rule="evenodd" clip-rule="evenodd" d="M8.25977 7.24512V7.82285H15.4955L8.25977 7.24512Z" fill="black"/>
<path id="Vector_15" fill-rule="evenodd" clip-rule="evenodd" d="M20.4122 7.62109C20.1167 7.62109 19.8774 7.8678 19.8774 8.17177C19.8774 8.47653 20.1167 8.72323 20.4122 8.72323C20.707 8.72323 20.9462 8.47653 20.9462 8.17177C20.9462 7.8678 20.707 7.62109 20.4122 7.62109Z" fill="black"/>
</g>
</svg>
