<svg width="22" height="20" viewBox="0 0 22 20" fill="none" xmlns="http://www.w3.org/2000/svg">
<g id="Group 195">
<path id="Vector" d="M16.5924 16.1344V17.4014C16.5924 17.744 16.8752 18.0218 17.224 18.0218H19.7356C20.0844 18.0218 20.3672 17.744 20.3672 17.4014V10.9189C20.3672 10.46 20.2564 10.0196 20.056 9.62834L19.4842 8.86449L20.913 8.09447C21.2348 7.92096 21.3962 7.35984 21.2652 6.86947L21.1187 6.32078C21.027 5.97749 20.812 5.7539 20.5736 5.7539H17.5958L17.0379 4.17971C16.7709 3.42634 16.0583 2.92285 15.259 2.92285H13.2895C13.0289 2.92285 12.8177 3.1341 12.8177 3.39469C12.8177 3.65528 13.0289 3.86654 13.2895 3.86654H15.259C15.6586 3.86654 16.0149 4.11828 16.1484 4.49496L16.7064 6.06916C16.8399 6.44584 17.1962 6.69759 17.5958 6.69759H20.2425L20.3535 7.11301C20.3709 7.17825 20.3714 7.25778 20.3565 7.32235L19.0365 8.03377C18.471 8.33853 18.3686 9.10698 18.8347 9.54911C19.2089 9.90412 19.4235 10.3979 19.4235 10.9189V17.0781H17.5361V16.1344C17.5361 15.6132 17.1136 15.1907 16.5924 15.1907H13.2895C13.0289 15.1907 12.8177 15.402 12.8177 15.6626C12.8177 15.9232 13.0289 16.1344 13.2895 16.1344H16.5924ZM5.26822 16.1344V17.4014C5.26822 17.744 4.98546 18.0218 4.63667 18.0218H2.12504C1.77625 18.0218 1.49349 17.744 1.49349 17.4014V10.9189C1.49349 10.46 1.60419 10.0196 1.80469 9.62836L2.37647 8.8645L0.947676 8.09447C0.625814 7.92096 0.464447 7.35984 0.595421 6.86947L0.741949 6.32078C0.833644 5.97749 1.04862 5.7539 1.287 5.7539H4.26481L4.82275 4.17971C5.08977 3.42634 5.80239 2.92285 6.60169 2.92285H8.57111C8.83171 2.92285 9.04296 3.1341 9.04296 3.39469C9.04296 3.65528 8.83171 3.86654 8.57111 3.86654H6.60169C6.20204 3.86654 5.84573 4.11828 5.71222 4.49496L5.15428 6.06916C5.02077 6.44584 4.66446 6.69759 4.26481 6.69759H1.61808L1.50714 7.11298C1.48971 7.17825 1.48926 7.25778 1.50411 7.32235L2.82418 8.03378C3.38967 8.33855 3.492 9.10699 3.02596 9.54912C2.65175 9.90413 2.43717 10.3979 2.43717 10.9189V17.0781H4.32454V16.1344C4.32454 15.6132 4.74704 15.1907 5.26822 15.1907H8.57111C8.83171 15.1907 9.04296 15.402 9.04296 15.6626C9.04296 15.9232 8.83171 16.1344 8.57111 16.1344H5.26822Z" fill="#344054" stroke="#344054" stroke-width="0.6"/>
<path id="Vector_2" fill-rule="evenodd" clip-rule="evenodd" d="M6.57474 11.6702C6.83485 11.7023 7.0509 11.9023 7.0509 12.1634V12.5436C7.0509 12.6178 6.9892 12.677 6.91484 12.6742L4.86879 12.598C4.56987 12.5867 4.32471 12.3332 4.32471 12.0343V11.6134C4.32471 11.5013 4.41727 11.4037 4.52868 11.4173L6.57474 11.6702ZM15.2862 11.6702L17.3323 11.4173C17.4437 11.4037 17.5363 11.5013 17.5363 11.6134V12.0343C17.5363 12.3332 17.2911 12.5867 16.9922 12.598L14.9461 12.6742C14.8718 12.677 14.8101 12.6178 14.8101 12.5436V12.1634C14.8101 11.9023 15.0261 11.7023 15.2862 11.6702Z" fill="#344054" stroke="#344054" stroke-width="0.6"/>
<path id="Vector_3" d="M11.4022 1.507C11.4022 1.24641 11.1909 1.03516 10.9303 1.03516C10.6697 1.03516 10.4585 1.24641 10.4585 1.507V18.4933C10.4585 18.7539 10.6697 18.9651 10.9303 18.9651C11.1909 18.9651 11.4022 18.7539 11.4022 18.4933V1.507Z" fill="#344054" stroke="#344054" stroke-width="0.6"/>
</g>
</svg>
