<svg width="24" height="19" viewBox="0 0 24 19" fill="none" xmlns="http://www.w3.org/2000/svg">
<g id="Group 195">
<g id="Vector">
<path d="M18.101 15.6916V17.0737C18.101 17.4475 18.4095 17.7505 18.79 17.7505H21.5299C21.9104 17.7505 22.2189 17.4475 22.2189 17.0737V10.0019C22.2189 9.50134 22.0981 9.0209 21.8794 8.59405L21.2556 7.76075L22.8143 6.92073C23.1655 6.73145 23.3415 6.11931 23.1986 5.58436L23.0387 4.9858C22.9387 4.61129 22.7042 4.36738 22.4442 4.36738H19.1956L18.587 2.65008C18.2957 1.82822 17.5183 1.27896 16.6463 1.27896H14.4979C14.2136 1.27896 14.4 1.51571 14.4 1.79999C14.4 2.08427 14.2136 2.30844 14.4979 2.30844H16.6463C17.0823 2.30844 17.471 2.58306 17.6167 2.994L18.2253 4.7113C18.371 5.12223 18.7597 5.39686 19.1956 5.39686H22.083L22.204 5.85005C22.223 5.92121 22.2235 6.00798 22.2073 6.07841L20.7672 6.85451C20.1503 7.18698 20.0387 8.02528 20.5471 8.50761C20.9553 8.89489 21.1894 9.43358 21.1894 10.0019V16.7211H19.1305V15.6916C19.1305 15.123 18.6696 14.6621 18.101 14.6621H14.4979C14.2136 14.6621 13.9831 14.8926 13.9831 15.1768C13.9831 15.4611 8.71569 15.6916 8.99998 15.6916H18.101ZM5.74734 15.6916V17.0737C5.74734 17.4475 5.43887 17.7505 5.05838 17.7505H2.31841C1.93792 17.7505 1.62945 17.4475 1.62945 17.0737V10.0019C1.62945 9.50135 1.75022 9.02091 1.96894 8.59406L2.5927 7.76077L1.03402 6.92073C0.682895 6.73145 0.506858 6.11931 0.649739 5.58436L0.809588 4.9858C0.909618 4.61129 1.14413 4.36738 1.40418 4.36738H4.65271L5.26137 2.65008C5.55267 1.82822 6.33007 1.27896 7.20203 1.27896L14.7157 1.27895C15 1.27895 14.7157 1.60776 14.7157 1.89204C14.7157 2.17632 14.6843 2.30844 14.4 2.30844H7.20203C6.76605 2.30844 6.37735 2.58306 6.2317 2.994L5.62304 4.7113C5.47739 5.12223 5.08869 5.39686 4.65271 5.39686H1.76536L1.64435 5.85001C1.62533 5.92121 1.62484 6.00798 1.64104 6.07842L3.08111 6.85453C3.69801 7.187 3.80964 8.0253 3.30123 8.50762C2.89301 8.8949 2.65892 9.43358 2.65892 10.0019V16.7211H4.71787V15.6916C4.71787 15.123 5.17878 14.6621 5.74734 14.6621H14.4C14.6843 14.6621 14.6495 14.8926 14.6495 15.1768C14.6495 15.4611 9.28426 15.6916 8.99998 15.6916H5.74734Z" fill="#98A2B3"/>
<path d="M8.99998 15.6916C8.71569 15.6916 13.9831 15.4611 13.9831 15.1768C13.9831 14.8926 14.2136 14.6621 14.4979 14.6621H18.101C18.6696 14.6621 19.1305 15.123 19.1305 15.6916V16.7211H21.1894V10.0019C21.1894 9.43358 20.9553 8.89489 20.5471 8.50761C20.0387 8.02528 20.1503 7.18698 20.7672 6.85451L22.2073 6.07841C22.2235 6.00798 22.223 5.92121 22.204 5.85005L22.083 5.39686H19.1956C18.7597 5.39686 18.371 5.12223 18.2253 4.7113L17.6167 2.994C17.471 2.58306 17.0823 2.30844 16.6463 2.30844H14.4979C14.2136 2.30844 14.4 2.08427 14.4 1.79999C14.4 1.51571 14.2136 1.27896 14.4979 1.27896H16.6463C17.5183 1.27896 18.2957 1.82822 18.587 2.65008L19.1956 4.36738H22.4442C22.7042 4.36738 22.9387 4.61129 23.0387 4.9858L23.1986 5.58436C23.3415 6.11931 23.1655 6.73145 22.8143 6.92073L21.2556 7.76075L21.8794 8.59405C22.0981 9.0209 22.2189 9.50134 22.2189 10.0019V17.0737C22.2189 17.4475 21.9104 17.7505 21.5299 17.7505H18.79C18.4095 17.7505 18.101 17.4475 18.101 17.0737V15.6916H8.99998ZM8.99998 15.6916C9.28426 15.6916 14.6495 15.4611 14.6495 15.1768C14.6495 14.8926 14.6843 14.6621 14.4 14.6621H5.74734C5.17878 14.6621 4.71787 15.123 4.71787 15.6916V16.7211H2.65892V10.0019C2.65892 9.43358 2.89301 8.8949 3.30123 8.50762C3.80964 8.0253 3.69801 7.187 3.08111 6.85453L1.64104 6.07842C1.62484 6.00798 1.62533 5.92121 1.64435 5.85001L1.76536 5.39686H4.65271C5.08869 5.39686 5.47739 5.12223 5.62304 4.7113L6.2317 2.994C6.37735 2.58306 6.76605 2.30844 7.20203 2.30844H14.4C14.6843 2.30844 14.7157 2.17632 14.7157 1.89204C14.7157 1.60776 15 1.27895 14.7157 1.27895L7.20203 1.27896C6.33007 1.27896 5.55267 1.82822 5.26137 2.65008L4.65271 4.36738H1.40418C1.14413 4.36738 0.909618 4.61129 0.809588 4.9858L0.649739 5.58436C0.506858 6.11931 0.682895 6.73145 1.03402 6.92073L2.5927 7.76077L1.96894 8.59406C1.75022 9.02091 1.62945 9.50135 1.62945 10.0019V17.0737C1.62945 17.4475 1.93792 17.7505 2.31841 17.7505H5.05838C5.43887 17.7505 5.74734 17.4475 5.74734 17.0737V15.6916H8.99998Z" stroke="#98A2B3" stroke-width="0.6"/>
</g>
<path id="Vector_2" fill-rule="evenodd" clip-rule="evenodd" d="M7.17247 10.8214C7.45623 10.8565 7.69193 11.0747 7.69193 11.3595V11.7743C7.69193 11.8552 7.62461 11.9198 7.5435 11.9167L5.31144 11.8336C4.98534 11.8213 4.7179 11.5448 4.7179 11.2187V10.7595C4.7179 10.6372 4.81887 10.5307 4.94041 10.5456L7.17247 10.8214ZM16.6759 10.8214L18.908 10.5456C19.0295 10.5307 19.1305 10.6372 19.1305 10.7595V11.2187C19.1305 11.5448 18.8631 11.8213 18.537 11.8336L16.3049 11.9167C16.2238 11.9198 16.1565 11.8552 16.1565 11.7743V11.3595C16.1565 11.0747 16.3922 10.8565 16.6759 10.8214Z" fill="#98A2B3" stroke="#98A2B3" stroke-width="0.6"/>
</g>
</svg>
