<svg width="14" height="14" viewBox="0 0 14 14" fill="none" xmlns="http://www.w3.org/2000/svg">
<g id="rotate-cw" clip-path="url(#clip0_857_147410)">
<path id="Icon" d="M13.4168 2.33416V5.83416M13.4168 5.83416H9.91676M13.4168 5.83416L10.7159 3.29082C9.91128 2.48567 8.86675 1.96385 7.73974 1.80399C6.61272 1.64413 5.46427 1.8549 4.46747 2.40453C3.47066 2.95416 2.67949 3.81288 2.21318 4.85128C1.74687 5.88968 1.63069 7.05151 1.88214 8.16169C2.13359 9.27187 2.73905 10.2702 3.60728 11.0064C4.47552 11.7425 5.55948 12.1765 6.69584 12.243C7.83219 12.3095 8.95937 12.0048 9.90752 11.375C10.8557 10.7451 11.5734 9.82411 11.9526 8.75082" stroke="#667085" stroke-width="1.2" stroke-linecap="round" stroke-linejoin="round"/>
</g>
<defs>
<clipPath id="clip0_857_147410">
<rect width="14" height="14" fill="white"/>
</clipPath>
</defs>
</svg>
