<svg width="22" height="22" viewBox="0 0 22 22" fill="none" xmlns="http://www.w3.org/2000/svg">
<g id="link">
<path id="Icon" d="M9.16685 11.917C9.56051 12.4432 10.0628 12.8787 10.6395 13.1938C11.2163 13.5089 11.8541 13.6963 12.5096 13.7433C13.1652 13.7902 13.8231 13.6956 14.4389 13.4659C15.0547 13.2362 15.6139 12.8768 16.0785 12.412L18.8285 9.66196C19.6634 8.79753 20.1254 7.63977 20.1149 6.43804C20.1045 5.2363 19.6225 4.08675 18.7727 3.23696C17.9229 2.38717 16.7733 1.90515 15.5716 1.8947C14.3699 1.88426 13.2121 2.34624 12.3477 3.18113L10.771 4.74863M12.8335 10.0836C12.4399 9.55734 11.9376 9.12188 11.3608 8.80677C10.7841 8.49165 10.1463 8.30427 9.49075 8.25732C8.83521 8.21037 8.17723 8.30496 7.56145 8.53466C6.94567 8.76436 6.38649 9.12381 5.92185 9.58863L3.17185 12.3386C2.33696 13.2031 1.87498 14.3608 1.88543 15.5625C1.89587 16.7643 2.37789 17.9138 3.22768 18.7636C4.07747 19.6134 5.22703 20.0954 6.42876 20.1059C7.6305 20.1163 8.78826 19.6544 9.65268 18.8195L11.2202 17.252" stroke="#344054" stroke-width="1.67" stroke-linecap="round" stroke-linejoin="round"/>
</g>
</svg>
