<svg width="22" height="22" viewBox="0 0 22 22" fill="none" xmlns="http://www.w3.org/2000/svg">
<g id="edit">
<path id="Icon" d="M10.0835 3.66622H3.66683C3.1806 3.66622 2.71428 3.85938 2.37047 4.20319C2.02665 4.54701 1.8335 5.01333 1.8335 5.49956V18.3329C1.8335 18.8191 2.02665 19.2854 2.37047 19.6293C2.71428 19.9731 3.1806 20.1662 3.66683 20.1662H16.5002C16.9864 20.1662 17.4527 19.9731 17.7965 19.6293C18.1403 19.2854 18.3335 18.8191 18.3335 18.3329V11.9162M16.9585 2.29122C17.3232 1.92655 17.8178 1.72168 18.3335 1.72168C18.8492 1.72168 19.3438 1.92655 19.7085 2.29122C20.0732 2.6559 20.278 3.1505 20.278 3.66622C20.278 4.18195 20.0732 4.67655 19.7085 5.04122L11.0002 13.7496L7.3335 14.6662L8.25016 10.9996L16.9585 2.29122Z" stroke="#344054" stroke-width="1.66667" stroke-linecap="round" stroke-linejoin="round"/>
</g>
</svg>
